<svg width="1395" height="854" viewBox="0 0 1395 854" fill="none" xmlns="http://www.w3.org/2000/svg">
<g filter="url(#filter0_d_24_39)">
<circle cx="1309.47" cy="438.527" r="292.527" fill="#26FBFF"/>
<circle cx="1016.43" cy="519.1" r="269.433" fill="#26FBFF"/>
<circle cx="1221.2" cy="634.571" r="184.754" fill="#26FBFF"/>
<circle cx="1374.14" cy="648.941" r="152.935" fill="#26FBFF"/>
<circle cx="739" cy="93" r="61" fill="#26FBFF"/>
<circle cx="1007" cy="200" r="21" fill="#26FBFF"/>
<circle cx="1072" cy="102" r="29" fill="#26FBFF"/>
<circle cx="1287.5" cy="250.5" r="46.5" fill="#0E1A54"/>
<circle cx="800" cy="564" r="12" fill="#0E1A54"/>
<circle cx="891" cy="380" r="59" fill="#0E1A54"/>
<circle cx="1220.5" cy="758.5" r="30.5" fill="#0E1A54"/>
<circle cx="1119.5" cy="321.5" r="18.5" fill="#0E1A54"/>
<circle cx="716.5" cy="408.5" r="30.5" fill="#26FBFF"/>
<circle cx="832" cy="258" r="14" fill="#26FBFF"/>
<circle cx="42.5" cy="31.5" r="24.5" fill="#26FBFF"/>
<circle cx="127" cy="90" r="10" fill="#26FBFF"/>
<circle cx="21.5" cy="597.5" r="17.5" fill="#26FBFF"/>
<circle cx="134.5" cy="628.5" r="7.5" fill="#26FBFF"/>
<circle cx="179" cy="579" r="4" fill="#26FBFF"/>
<circle cx="392.5" cy="602.5" r="26.5" fill="#26FBFF"/>
<circle cx="686" cy="786" r="58" fill="#26FBFF"/>
<circle cx="1081.5" cy="214.5" r="9.5" fill="#26FBFF"/>
<circle cx="1379.5" cy="63.5" r="63.5" fill="#26FBFF"/>
<circle cx="1395" cy="631" r="112" fill="#0E1A54"/>
</g>
<defs>
<filter id="filter0_d_24_39" x="0" y="0" width="1606" height="854" filterUnits="userSpaceOnUse" color-interpolation-filters="sRGB">
<feFlood flood-opacity="0" result="BackgroundImageFix"/>
<feColorMatrix in="SourceAlpha" type="matrix" values="0 0 0 0 0 0 0 0 0 0 0 0 0 0 0 0 0 0 127 0" result="hardAlpha"/>
<feOffset dy="6"/>
<feGaussianBlur stdDeviation="2"/>
<feComposite in2="hardAlpha" operator="out"/>
<feColorMatrix type="matrix" values="0 0 0 0 0 0 0 0 0 0 0 0 0 0 0 0 0 0 0.25 0"/>
<feBlend mode="normal" in2="BackgroundImageFix" result="effect1_dropShadow_24_39"/>
<feBlend mode="normal" in="SourceGraphic" in2="effect1_dropShadow_24_39" result="shape"/>
</filter>
</defs>
</svg>
