<svg width="364" height="172" viewBox="0 0 364 172" fill="none" xmlns="http://www.w3.org/2000/svg">
<circle cx="73" cy="99" r="73" fill="#26FBFF"/>
<circle cx="123" cy="55" r="55" fill="#26FBFF"/>
<circle cx="150" cy="119" r="49" fill="#26FBFF"/>
<circle cx="189.5" cy="64.5" r="39.5" fill="#26FBFF"/>
<circle cx="263.5" cy="64.5" r="64.5" fill="#26FBFF"/>
<circle cx="307.5" cy="109.5" r="56.5" fill="#26FBFF"/>
<circle cx="226" cy="125" r="36" fill="#26FBFF"/>
<path d="M80.9576 101.75C81.391 102.05 82.1576 102.417 83.2576 102.85C84.3576 103.25 85.6576 103.45 87.1576 103.45C88.4576 103.45 89.5243 103.233 90.3576 102.8C91.191 102.333 91.8243 101.65 92.2576 100.75C92.7243 99.85 93.0243 98.6833 93.1576 97.25C93.3243 95.8167 93.4076 94.1 93.4076 92.1V73.5H100.308V91.55C100.308 94.2167 100.158 96.65 99.8576 98.85C99.5576 101.05 98.9743 102.95 98.1076 104.55C97.241 106.15 95.9243 107.383 94.1576 108.25C92.4243 109.117 90.1076 109.55 87.2076 109.55C85.6076 109.55 84.1743 109.367 82.9076 109C81.641 108.633 80.4743 108.083 79.4076 107.35L80.9576 101.75ZM122.468 109.25C119.868 109.25 117.501 108.75 115.368 107.75C113.268 106.75 111.451 105.4 109.918 103.7C108.418 101.967 107.251 100.033 106.418 97.9C105.585 95.7333 105.168 93.5167 105.168 91.25C105.168 88.8833 105.601 86.6333 106.468 84.5C107.368 82.3333 108.585 80.4167 110.118 78.75C111.685 77.05 113.518 75.7167 115.618 74.75C117.751 73.75 120.085 73.25 122.618 73.25C125.185 73.25 127.518 73.7667 129.618 74.8C131.751 75.8333 133.568 77.2167 135.068 78.95C136.568 80.6833 137.735 82.6167 138.568 84.75C139.401 86.8833 139.818 89.0833 139.818 91.35C139.818 93.6833 139.385 95.9333 138.518 98.1C137.651 100.233 136.435 102.15 134.868 103.85C133.335 105.517 131.502 106.833 129.368 107.8C127.268 108.767 124.968 109.25 122.468 109.25ZM112.168 91.25C112.168 92.7833 112.401 94.2667 112.868 95.7C113.335 97.1333 114.001 98.4167 114.868 99.55C115.768 100.65 116.851 101.533 118.118 102.2C119.418 102.833 120.885 103.15 122.518 103.15C124.185 103.15 125.668 102.817 126.968 102.15C128.268 101.45 129.351 100.533 130.218 99.4C131.085 98.2333 131.735 96.95 132.168 95.55C132.635 94.1167 132.868 92.6833 132.868 91.25C132.868 89.7167 132.618 88.25 132.118 86.85C131.652 85.4167 130.968 84.15 130.068 83.05C129.201 81.9167 128.118 81.0333 126.818 80.4C125.551 79.7333 124.118 79.4 122.518 79.4C120.818 79.4 119.318 79.75 118.018 80.45C116.751 81.1167 115.685 82.0167 114.818 83.15C113.951 84.2833 113.285 85.55 112.818 86.95C112.385 88.35 112.168 89.7833 112.168 91.25ZM145.111 109V73.5H152.011V109H145.111ZM166.318 86.2V109H159.418V73.5H164.918L183.268 96.9V73.55H190.168V109H184.418L166.318 86.2ZM219.956 73.6H226.356L230.406 85.35L234.506 73.6H240.856L234.756 89.75L239.256 101.05L249.306 73.5H256.806L242.606 109H236.656L230.406 94.1L224.206 109H218.256L204.106 73.5H211.506L221.606 101.05L226.006 89.75L219.956 73.6ZM260.443 109V73.5H267.343V102.95H285.443V109H260.443Z" fill="#0E1A54"/>
</svg>
