<svg width="480" height="259" viewBox="0 0 480 259" fill="none" xmlns="http://www.w3.org/2000/svg">
<g filter="url(#filter0_d_31_195)">
<circle cx="145" cy="142" r="73" fill="#26FBFF"/>
<circle cx="195" cy="98" r="55" fill="#26FBFF"/>
<circle cx="222" cy="162" r="49" fill="#26FBFF"/>
<circle cx="261.5" cy="107.5" r="39.5" fill="#26FBFF"/>
<circle cx="335.5" cy="107.5" r="64.5" fill="#26FBFF"/>
<circle cx="431.5" cy="47.5" r="10.5" fill="#26FBFF"/>
<circle cx="129.5" cy="58.5" r="5.5" fill="#26FBFF"/>
<circle cx="32.5" cy="110.5" r="21.5" fill="#26FBFF"/>
<circle cx="455.5" cy="191.5" r="13.5" fill="#26FBFF"/>
<circle cx="260.5" cy="231.5" r="10.5" fill="#26FBFF"/>
<circle cx="303" cy="21" r="16" fill="#26FBFF"/>
<circle cx="379.5" cy="152.5" r="56.5" fill="#26FBFF"/>
<circle cx="298" cy="168" r="36" fill="#26FBFF"/>
<path d="M152.958 144.75C153.391 145.05 154.158 145.417 155.258 145.85C156.358 146.25 157.658 146.45 159.158 146.45C160.458 146.45 161.524 146.233 162.358 145.8C163.191 145.333 163.824 144.65 164.258 143.75C164.724 142.85 165.024 141.683 165.158 140.25C165.324 138.817 165.408 137.1 165.408 135.1V116.5H172.308V134.55C172.308 137.217 172.158 139.65 171.858 141.85C171.558 144.05 170.974 145.95 170.108 147.55C169.241 149.15 167.924 150.383 166.158 151.25C164.424 152.117 162.108 152.55 159.208 152.55C157.608 152.55 156.174 152.367 154.908 152C153.641 151.633 152.474 151.083 151.408 150.35L152.958 144.75ZM194.468 152.25C191.868 152.25 189.501 151.75 187.368 150.75C185.268 149.75 183.451 148.4 181.918 146.7C180.418 144.967 179.251 143.033 178.418 140.9C177.585 138.733 177.168 136.517 177.168 134.25C177.168 131.883 177.601 129.633 178.468 127.5C179.368 125.333 180.585 123.417 182.118 121.75C183.685 120.05 185.518 118.717 187.618 117.75C189.751 116.75 192.085 116.25 194.618 116.25C197.185 116.25 199.518 116.767 201.618 117.8C203.751 118.833 205.568 120.217 207.068 121.95C208.568 123.683 209.735 125.617 210.568 127.75C211.401 129.883 211.818 132.083 211.818 134.35C211.818 136.683 211.385 138.933 210.518 141.1C209.651 143.233 208.435 145.15 206.868 146.85C205.335 148.517 203.502 149.833 201.368 150.8C199.268 151.767 196.968 152.25 194.468 152.25ZM184.168 134.25C184.168 135.783 184.401 137.267 184.868 138.7C185.335 140.133 186.001 141.417 186.868 142.55C187.768 143.65 188.851 144.533 190.118 145.2C191.418 145.833 192.885 146.15 194.518 146.15C196.185 146.15 197.668 145.817 198.968 145.15C200.268 144.45 201.351 143.533 202.218 142.4C203.085 141.233 203.735 139.95 204.168 138.55C204.635 137.117 204.868 135.683 204.868 134.25C204.868 132.717 204.618 131.25 204.118 129.85C203.652 128.417 202.968 127.15 202.068 126.05C201.201 124.917 200.118 124.033 198.818 123.4C197.551 122.733 196.118 122.4 194.518 122.4C192.818 122.4 191.318 122.75 190.018 123.45C188.751 124.117 187.685 125.017 186.818 126.15C185.951 127.283 185.285 128.55 184.818 129.95C184.385 131.35 184.168 132.783 184.168 134.25ZM217.111 152V116.5H224.011V152H217.111ZM238.318 129.2V152H231.418V116.5H236.918L255.268 139.9V116.55H262.168V152H256.418L238.318 129.2ZM291.956 116.6H298.356L302.406 128.35L306.506 116.6H312.856L306.756 132.75L311.256 144.05L321.306 116.5H328.806L314.606 152H308.656L302.406 137.1L296.206 152H290.256L276.106 116.5H283.506L293.606 144.05L298.006 132.75L291.956 116.6ZM332.443 152V116.5H339.343V145.95H357.443V152H332.443Z" fill="#0E1A54"/>
</g>
<defs>
<filter id="filter0_d_31_195" x="0" y="0" width="480" height="259" filterUnits="userSpaceOnUse" color-interpolation-filters="sRGB">
<feFlood flood-opacity="0" result="BackgroundImageFix"/>
<feColorMatrix in="SourceAlpha" type="matrix" values="0 0 0 0 0 0 0 0 0 0 0 0 0 0 0 0 0 0 127 0" result="hardAlpha"/>
<feOffset dy="6"/>
<feGaussianBlur stdDeviation="5.5"/>
<feComposite in2="hardAlpha" operator="out"/>
<feColorMatrix type="matrix" values="0 0 0 0 0 0 0 0 0 0 0 0 0 0 0 0 0 0 0.25 0"/>
<feBlend mode="normal" in2="BackgroundImageFix" result="effect1_dropShadow_31_195"/>
<feBlend mode="normal" in="SourceGraphic" in2="effect1_dropShadow_31_195" result="shape"/>
</filter>
</defs>
</svg>
