<?xml version="1.0" encoding="utf-8"?>
<!-- Generator: Adobe Illustrator 25.0.0, SVG Export Plug-In . SVG Version: 6.00 Build 0)  -->
<svg version="1.1" id="Layer_1" xmlns="http://www.w3.org/2000/svg" xmlns:xlink="http://www.w3.org/1999/xlink" x="0px" y="0px"
	 viewBox="0 0 500 500" style="enable-background:new 0 0 500 500;" xml:space="preserve">
<style type="text/css">
	.st0{fill:#FFFFFF;}
</style>
<g>
	<path class="st0" d="M250.24,398.65c-28.69,0-56.18-6.41-81.7-19.06c-0.13-0.06-0.27-0.12-0.4-0.18
		c-7.39-3.69-14.59-7.9-21.4-12.53l0,0c-0.14-0.1-0.28-0.2-0.42-0.31c-14.98-11.23-27.05-26.12-34.91-43.08
		c-2.25-4.85-4.16-9.88-5.66-14.94c-0.03-0.1-0.06-0.2-0.09-0.3c-1.34-4.48-2.42-9.14-3.19-13.87c-2.13-11.3-3.22-22.91-3.22-34.49
		c0-11.72,1.11-23.43,3.29-34.85c-3.95-5.44-7.42-11.27-10.35-17.35c-7.37-15.37-11.1-31.84-11.1-48.99
		c0-6.45,0.54-12.87,1.61-19.08c0.16-1.01,0.36-2.11,0.58-3.18c1.71-8.57,4.43-16.97,8.09-24.96c0.81-1.76,2.3-3.1,4.13-3.72
		c2.63-0.88,5.3-1.68,7.92-2.35c0.07-0.02,0.13-0.03,0.2-0.05c7.43-1.88,21.75-3.29,24.04-3.44l0-0.01
		c1.29-0.05,2.63-0.08,4.08-0.08c16.62,0,32.62,3.51,47.56,10.44c5.26,2.43,10.34,5.27,15.15,8.49c9.47-3.01,19.26-5.25,29.15-6.68
		c17.56-2.54,35.73-2.54,53.29,0c9.89,1.43,19.68,3.68,29.15,6.68c4.81-3.21,9.9-6.06,15.17-8.49
		c14.92-6.92,30.92-10.43,47.54-10.43c1.43,0,2.75,0.02,4.02,0.07c0.01,0,0.03,0,0.04,0c8.11,0.28,16.21,1.44,24.07,3.45
		c0.06,0.01,0.12,0.03,0.18,0.04c2.62,0.68,5.29,1.47,7.92,2.35c1.83,0.62,3.33,1.96,4.13,3.72c3.66,7.99,6.38,16.39,8.09,24.99
		c0.21,1.03,0.41,2.13,0.59,3.23c1.06,6.13,1.6,12.55,1.6,19c0,17.14-3.73,33.62-11.1,48.98c0,0,0,0.01,0,0.01
		c-2.93,6.08-6.4,11.91-10.35,17.35c2.19,11.43,3.29,23.14,3.29,34.85c0,11.59-1.08,23.19-3.21,34.49
		c-0.78,4.77-1.86,9.47-3.22,13.98c-0.02,0.06-0.03,0.11-0.05,0.17c-1.51,5.07-3.42,10.1-5.67,14.97
		c-7.86,16.95-19.93,31.84-34.91,43.08c-0.14,0.11-0.28,0.21-0.42,0.31l0,0c-6.81,4.62-14.01,8.84-21.4,12.53
		c-0.13,0.07-0.27,0.13-0.4,0.19C306.41,392.24,278.93,398.65,250.24,398.65z M174.16,366.76c0.15,0.07,0.31,0.14,0.45,0.21
		c23.56,11.72,49.03,17.68,75.63,17.68c26.6,0,52.07-5.96,75.7-17.72c0.12-0.06,0.25-0.12,0.38-0.18
		c6.67-3.34,13.17-7.15,19.32-11.31c0,0,0,0,0,0c13.19-9.86,23.81-22.95,30.72-37.85c1.98-4.27,3.65-8.69,4.97-13.13v0
		c0.01-0.04,0.02-0.08,0.04-0.12c0-0.01,0.01-0.02,0.01-0.03c1.19-3.95,2.14-8.08,2.82-12.27c0.01-0.06,0.02-0.12,0.03-0.18
		c1.98-10.47,2.99-21.23,2.99-31.98c0-11.82-1.22-23.64-3.62-35.1c-0.42-2,0.06-4.09,1.31-5.71c4.16-5.4,7.78-11.27,10.75-17.45l0,0
		c6.45-13.45,9.72-27.9,9.72-42.92c0-5.65-0.47-11.27-1.41-16.7c-0.16-0.98-0.32-1.87-0.5-2.76c-1.31-6.56-3.28-12.98-5.87-19.13
		c-1.3-0.4-2.6-0.76-3.89-1.1c-0.06-0.01-0.11-0.03-0.17-0.04c-6.92-1.78-14.05-2.81-21.19-3.06c-0.03,0-0.06,0-0.09,0
		c-1.11-0.04-2.26-0.06-3.54-0.06c-14.57,0-28.59,3.08-41.67,9.14c-5.57,2.57-10.9,5.67-15.85,9.21c-1.83,1.31-4.19,1.66-6.32,0.94
		c-9.7-3.29-19.8-5.71-30.02-7.19c-16.22-2.35-33.05-2.35-49.27,0c-10.22,1.48-20.32,3.9-30.02,7.19c-2.13,0.73-4.49,0.38-6.32-0.94
		c-4.95-3.54-10.28-6.64-15.84-9.21c-13.09-6.07-27.1-9.15-41.68-9.15c-1.21,0-2.31,0.02-3.36,0.06c-4,0.36-15.92,1.65-21.45,3.07
		c-0.06,0.01-0.11,0.03-0.17,0.04c-1.29,0.33-2.59,0.7-3.89,1.1c-2.59,6.15-4.56,12.56-5.86,19.1c-0.19,0.92-0.35,1.81-0.49,2.71
		c-0.95,5.51-1.42,11.13-1.42,16.78c0,15.03,3.27,29.47,9.72,42.92c2.97,6.18,6.59,12.05,10.75,17.45c1.25,1.62,1.73,3.71,1.31,5.71
		c-2.4,11.47-3.62,23.28-3.62,35.1c0,10.74,1.01,21.5,2.99,31.98c0.01,0.06,0.02,0.12,0.03,0.18c0.68,4.19,1.63,8.32,2.82,12.27
		c0.02,0.07,0.04,0.14,0.06,0.21c1.32,4.43,2.98,8.83,4.96,13.09c6.91,14.9,17.53,27.99,30.72,37.85c0,0,0,0,0,0
		C161,359.62,167.5,363.42,174.16,366.76z M174.53,366.94c0,0,0.01,0,0.01,0.01C174.54,366.94,174.54,366.94,174.53,366.94z
		 M174.19,366.78c0.04,0.02,0.09,0.04,0.13,0.06C174.28,366.81,174.24,366.79,174.19,366.78z M394.66,308.77
		C394.66,308.77,394.66,308.77,394.66,308.77C394.66,308.77,394.66,308.77,394.66,308.77z M381.23,304.98c0,0,0,0.01,0,0.01
		C381.22,304.98,381.22,304.98,381.23,304.98z M381.23,304.97C381.23,304.97,381.23,304.97,381.23,304.97
		C381.23,304.97,381.23,304.97,381.23,304.97z M401.98,204.64L401.98,204.64L401.98,204.64z"/>
</g>
<g>
	<path class="st0" d="M124.57,204.49c-1.91,0-3.67-1.09-4.51-2.84c-4.9-10.23-7.39-21.21-7.39-32.62c0-11.13,2.37-21.85,7.04-31.85
		c0.65-1.4,1.92-2.42,3.43-2.76c5.46-1.24,11.1-1.86,16.75-1.86c13.29,0,26.37,3.51,37.81,10.14c1.75,1.02,2.72,2.98,2.45,4.99
		s-1.72,3.65-3.68,4.17c-23.6,6.25-41.62,24.93-47.02,48.74c-0.47,2.08-2.2,3.62-4.32,3.86
		C124.94,204.48,124.76,204.49,124.57,204.49z M127.77,143.67c-3.38,8.02-5.1,16.54-5.1,25.36c0,5.17,0.59,10.23,1.75,15.15
		c7.49-16.76,20.84-30.19,37.63-37.78c-7.07-2.54-14.57-3.85-22.16-3.85C135.81,142.55,131.75,142.93,127.77,143.67z"/>
</g>
<g>
	<path class="st0" d="M375.1,204.5c-0.19,0-0.38-0.01-0.56-0.03c-2.11-0.24-3.84-1.79-4.31-3.86c-5.39-23.82-23.4-42.5-47.01-48.75
		c-1.96-0.52-3.41-2.16-3.67-4.17c-0.27-2,0.69-3.97,2.44-4.99c11.43-6.64,24.5-10.15,37.8-10.15c5.67,0,11.31,0.63,16.76,1.86
		c1.51,0.34,2.77,1.36,3.42,2.76c4.67,10,7.04,20.72,7.04,31.86c0,11.43-2.49,22.41-7.4,32.64
		C378.77,203.41,377.01,204.5,375.1,204.5z M337.63,146.4c16.79,7.59,30.14,21.03,37.63,37.8c1.17-4.92,1.75-9.99,1.75-15.17
		c0-8.83-1.71-17.35-5.1-25.36c-3.97-0.74-8.04-1.12-12.13-1.12C352.19,142.55,344.69,143.87,337.63,146.4z"/>
</g>
<g>
	<path class="st0" d="M275.23,310.83c-6.15,10.07-14.75,18.47-24.96,24.39c-9.89-5.72-18.26-13.77-24.35-23.4
		c8.04-3.19,16.81-4.95,25.99-4.95C260.08,306.87,267.93,308.26,275.23,310.83z"/>
</g>
<g>
	<path class="st0" d="M303.39,252.58c0,0.62,0.01,1.23,0.02,1.84c0.14,5.39,0.88,10.62,2.16,15.64h0.01
		c2.11,8.29,5.69,16,10.46,22.82c4.77-6.82,8.35-14.53,10.47-22.83c1.27-4.99,2.01-10.2,2.16-15.56c0.01-0.63,0.02-1.27,0.02-1.91
		c0-0.58-0.01-1.16-0.02-1.74c-0.13-5.36-0.86-10.57-2.12-15.56c-2.11-8.36-5.71-16.12-10.51-22.99c-4.8,6.87-8.4,14.63-10.51,22.99
		c-1.26,4.99-1.99,10.2-2.12,15.55C303.4,251.41,303.39,252,303.39,252.58z"/>
</g>
<g>
	<path class="st0" d="M316.04,314.46c-11.74,0-22.99-2.62-33.44-7.8c-0.06-0.03-0.12-0.06-0.18-0.08c-1.8-0.9-3.57-1.87-5.26-2.88
		c-0.13-0.07-0.25-0.15-0.37-0.23c-4.23-2.82-7.83-6.34-10.73-10.47c-0.09-0.12-0.17-0.24-0.25-0.36h0
		c-1.13-1.79-2.22-3.7-3.23-5.66c-0.02-0.04-0.04-0.07-0.05-0.11c-0.07-0.12-0.13-0.25-0.19-0.37c-5.32-10.58-8.02-21.98-8.02-33.9
		c0-12.42,3.08-24.72,8.91-35.57l0.4-0.74c0.16-0.3,0.33-0.6,0.51-0.9c0.17-0.29,0.34-0.59,0.52-0.88c0-0.01,0.05-0.09,0.06-0.09
		c0.18-0.29,0.36-0.57,0.54-0.85c0.05-0.09,0.11-0.17,0.16-0.25l0,0l0.06-0.09c0-0.01,0.01-0.01,0.01-0.02
		c0.15-0.23,0.3-0.45,0.45-0.67c0.03-0.05,0.08-0.12,0.14-0.2c0.05-0.08,0.11-0.15,0.16-0.22l0.27-0.37
		c0.07-0.11,0.15-0.21,0.24-0.33c0.07-0.09,0.14-0.19,0.21-0.28c0.05-0.07,0.11-0.15,0.18-0.24c0.05-0.06,0.1-0.13,0.15-0.19
		c0.13-0.17,0.26-0.34,0.4-0.5c0.04-0.06,0.09-0.12,0.14-0.18c0.03-0.04,0.07-0.09,0.1-0.13c0.03-0.04,0.07-0.08,0.1-0.12
		c0.03-0.04,0.06-0.07,0.09-0.11c0.02-0.02,0.04-0.05,0.06-0.07c0.02-0.03,0.05-0.06,0.07-0.08c0.04-0.04,0.07-0.09,0.11-0.13
		c0.08-0.1,0.16-0.19,0.24-0.28c0.03-0.04,0.07-0.08,0.1-0.11c0.12-0.14,0.24-0.28,0.37-0.43c0.13-0.15,0.26-0.29,0.4-0.44
		c0.25-0.27,0.5-0.54,0.75-0.8c0.2-0.21,0.47-0.48,0.73-0.73c0.23-0.22,0.46-0.45,0.7-0.66c0.38-0.36,0.77-0.71,1.17-1.04
		c0.14-0.13,0.29-0.25,0.43-0.37c0.01-0.01,0.03-0.02,0.04-0.03c0.06-0.06,0.13-0.11,0.2-0.17c0.02-0.02,0.11-0.09,0.13-0.11
		l0.11-0.09c0.12-0.1,0.23-0.19,0.35-0.28c0.07-0.06,0.14-0.11,0.21-0.16c0.06-0.05,0.13-0.1,0.19-0.15
		c0.01-0.01,0.02-0.02,0.03-0.02c0.15-0.12,0.31-0.24,0.47-0.36c0.03-0.02,0.05-0.04,0.08-0.06c0.06-0.04,0.11-0.08,0.17-0.12
		c0.12-0.09,0.24-0.17,0.36-0.26c0.07-0.05,0.14-0.1,0.21-0.15c0.12-0.09,0.24-0.18,0.37-0.26c0.05-0.03,0.09-0.06,0.14-0.09
		c0.25-0.18,0.51-0.35,0.76-0.51c0.08-0.05,0.15-0.09,0.23-0.14c1.63-0.98,3.3-1.9,4.96-2.72c0.06-0.03,0.12-0.06,0.19-0.09
		c10.47-5.22,21.76-7.86,33.57-7.86c11.67,0,22.86,2.59,33.25,7.71c0.04,0.02,0.08,0.04,0.12,0.05c2.04,1.01,3.92,2.04,5.68,3.11
		c0.11,0.06,0.21,0.12,0.32,0.19c0.15,0.09,0.3,0.19,0.45,0.3c4.37,3,8.06,6.76,10.96,11.21c0.05,0.07,0.09,0.14,0.13,0.21l0,0
		c0.9,1.49,1.75,3.02,2.54,4.57c0.01,0.01,0.05,0.11,0.06,0.12c0.03,0.05,0.05,0.11,0.08,0.16c5.39,10.62,8.12,22.09,8.12,34.07
		c0,12.01-2.73,23.48-8.12,34.1c-0.01,0.03-0.03,0.05-0.04,0.08c-0.05,0.09-0.09,0.19-0.14,0.28c-0.94,1.83-1.97,3.65-3.07,5.41l0,0
		c-0.07,0.12-0.15,0.23-0.23,0.34c-2.88,4.19-6.51,7.76-10.78,10.61c-0.02,0.02-0.05,0.03-0.07,0.05c-0.1,0.06-0.19,0.13-0.3,0.18
		c-1.82,1.09-3.63,2.08-5.39,2.95c-0.02,0.01-0.05,0.02-0.07,0.03c-0.08,0.04-0.15,0.08-0.23,0.11
		C338.89,311.86,327.71,314.46,316.04,314.46z M287.01,297.68c0.01,0,0.02,0.01,0.02,0.01c9.06,4.49,18.82,6.76,29,6.76
		c10.17,0,19.91-2.27,28.95-6.74c0.01,0,0.01-0.01,0.02-0.01c0.08-0.04,0.16-0.08,0.24-0.11c1.49-0.74,3.02-1.58,4.57-2.51
		c0.02-0.01,0.04-0.02,0.06-0.04c3.21-2.16,5.93-4.85,8.09-8c0.01-0.02,0.02-0.03,0.03-0.05c0.93-1.5,1.8-3.05,2.59-4.6
		c0.01-0.02,0.02-0.04,0.03-0.06c0.05-0.12,0.11-0.23,0.18-0.35c4.61-9.16,6.95-19.05,6.95-29.4c0-10.45-2.39-20.43-7.1-29.68
		c-0.04-0.08-0.08-0.15-0.11-0.23c-0.62-1.22-1.34-2.51-2.09-3.75h0c-2.21-3.38-5.03-6.25-8.37-8.52c-0.01,0-0.01-0.01-0.02-0.01
		c-0.03-0.02-0.06-0.03-0.08-0.05c-1.49-0.91-3.11-1.8-4.81-2.64c-0.06-0.03-0.12-0.05-0.17-0.08v0
		c-9.04-4.47-18.78-6.74-28.95-6.74c-10.3,0-20.14,2.32-29.26,6.89c-0.07,0.03-0.14,0.07-0.21,0.1c-1.38,0.69-2.78,1.46-4.14,2.29
		c0,0-0.01,0-0.01,0.01c-0.02,0.01-0.03,0.02-0.05,0.03c-0.11,0.07-0.21,0.14-0.32,0.22c-0.07,0.05-0.15,0.11-0.23,0.16
		c-0.03,0.02-0.07,0.04-0.1,0.07c-0.06,0.04-0.12,0.09-0.18,0.13c-0.1,0.08-0.2,0.15-0.3,0.21c-0.05,0.04-0.1,0.07-0.14,0.11
		c-0.07,0.06-0.14,0.11-0.22,0.16c-0.06,0.04-0.13,0.09-0.19,0.14c-0.03,0.03-0.07,0.05-0.1,0.08c-0.05,0.04-0.1,0.08-0.16,0.12
		c-0.01,0.01-0.01,0.01,0.01-0.01c0,0,0,0,0,0c-0.09,0.08-0.19,0.16-0.29,0.23l-0.27,0.22c-0.01,0.01-0.03,0.02-0.05,0.04
		c-0.06,0.06-0.13,0.11-0.2,0.17l-0.18,0.15c-0.05,0.04-0.11,0.1-0.16,0.14c-0.28,0.23-0.56,0.49-0.82,0.74
		c-0.03,0.03-0.05,0.05-0.08,0.08c-0.13,0.12-0.27,0.25-0.39,0.37c-0.03,0.03-0.06,0.06-0.09,0.09c-0.18,0.17-0.35,0.35-0.53,0.53
		c-0.25,0.25-0.42,0.44-0.59,0.62c-0.01,0.01-0.03,0.03-0.04,0.04c-1.47,1.79-1.47,1.79-3.01,3.86c-0.02,0.04-0.05,0.07-0.07,0.11
		c-0.14,0.21-0.28,0.42-0.41,0.63c-0.17,0.29-0.32,0.53-0.45,0.77c-0.02,0.03-0.04,0.07-0.06,0.1c-0.11,0.19-0.21,0.37-0.32,0.56
		l-0.4,0.74c-5.04,9.38-7.71,20.05-7.71,30.82c0,10.37,2.36,20.3,7,29.5c0.01,0.02,0.02,0.04,0.03,0.06
		c0.06,0.11,0.12,0.22,0.17,0.34c0.83,1.61,1.71,3.16,2.63,4.63c0,0.01,0.01,0.01,0.01,0.02c2.17,3.14,4.9,5.82,8.1,7.96
		c1.44,0.87,2.96,1.71,4.51,2.48C286.86,297.61,286.94,297.64,287.01,297.68z M262.65,287.06
		C262.65,287.06,262.65,287.06,262.65,287.06C262.65,287.06,262.65,287.06,262.65,287.06z M360.59,282.39
		c-0.01,0.02-0.02,0.04-0.03,0.06L360.59,282.39C360.59,282.4,360.59,282.39,360.59,282.39z M273.15,219.58
		C273.15,219.58,273.15,219.58,273.15,219.58C273.15,219.58,273.15,219.58,273.15,219.58z M273.16,219.57
		C273.16,219.57,273.16,219.57,273.16,219.57C273.16,219.57,273.16,219.57,273.16,219.57z M273.17,219.56
		C273.17,219.56,273.17,219.56,273.17,219.56C273.17,219.56,273.17,219.56,273.17,219.56z M273.18,219.55
		C273.18,219.55,273.18,219.55,273.18,219.55C273.18,219.55,273.18,219.55,273.18,219.55z M273.19,219.54
		C273.19,219.54,273.18,219.54,273.19,219.54C273.18,219.54,273.19,219.54,273.19,219.54z M273.19,219.53
		C273.19,219.53,273.19,219.53,273.19,219.53C273.19,219.53,273.19,219.53,273.19,219.53z M273.2,219.52
		C273.2,219.52,273.2,219.52,273.2,219.52C273.2,219.52,273.2,219.52,273.2,219.52z M271.77,213.08h0.01H271.77z M271.82,213.02
		L271.82,213.02L271.82,213.02z M281.3,210.92C281.3,210.92,281.3,210.92,281.3,210.92C281.3,210.92,281.3,210.92,281.3,210.92z
		 M281.97,210.43C281.97,210.43,281.97,210.43,281.97,210.43C281.97,210.43,281.97,210.43,281.97,210.43z M282.09,210.36
		C282.09,210.36,282.09,210.36,282.09,210.36C282.09,210.36,282.09,210.36,282.09,210.36z M273.11,204.66
		C273.11,204.66,273.11,204.66,273.11,204.66C273.11,204.66,273.11,204.66,273.11,204.66z M273.12,204.65
		C273.11,204.66,273.11,204.66,273.12,204.65C273.11,204.66,273.11,204.66,273.12,204.65z M273.12,204.65
		C273.12,204.65,273.12,204.65,273.12,204.65C273.12,204.65,273.12,204.65,273.12,204.65z M273.15,204.63
		c-0.01,0.01-0.02,0.01-0.02,0.02C273.13,204.64,273.14,204.63,273.15,204.63z M273.15,204.62
		C273.15,204.62,273.15,204.62,273.15,204.62C273.15,204.62,273.15,204.62,273.15,204.62z"/>
</g>
<g>
	<path class="st0" d="M200.8,252.16c0,0.62-0.01,1.23-0.02,1.84c-0.14,5.39-0.88,10.62-2.16,15.64h-0.01
		c-2.11,8.29-5.69,16-10.46,22.82c-4.77-6.82-8.35-14.53-10.47-22.83c-1.27-4.99-2.01-10.2-2.16-15.56
		c-0.01-0.63-0.02-1.27-0.02-1.91c0-0.58,0.01-1.16,0.02-1.74c0.13-5.36,0.86-10.57,2.12-15.56c2.11-8.36,5.71-16.12,10.51-22.99
		c4.8,6.87,8.4,14.63,10.51,22.99c1.26,4.99,1.99,10.2,2.12,15.55C200.79,250.99,200.8,251.58,200.8,252.16z"/>
</g>
<g>
	<path class="st0" d="M188.15,314.03c-11.72,0-22.95-2.62-33.39-7.78c-0.06-0.02-0.11-0.05-0.17-0.08
		c-1.77-0.88-3.61-1.88-5.45-2.98l0,0c-0.06-0.04-0.12-0.07-0.18-0.11c-0.05-0.03-0.09-0.06-0.14-0.09
		c-4.27-2.86-7.9-6.43-10.79-10.62c-0.08-0.11-0.15-0.22-0.22-0.33l0,0c-1.1-1.76-2.13-3.58-3.07-5.41c-0.05-0.1-0.1-0.19-0.15-0.29
		c-0.01-0.02-0.03-0.05-0.04-0.07c-5.39-10.62-8.12-22.1-8.12-34.1c0-11.97,2.73-23.42,8.1-34.03c0.02-0.06,0.05-0.11,0.08-0.16
		l0.07-0.14c0.8-1.56,1.65-3.1,2.55-4.59l0,0c0.05-0.07,0.09-0.15,0.14-0.22c2.91-4.46,6.61-8.23,11-11.23
		c0.05-0.03,0.1-0.07,0.15-0.1c0.06-0.04,0.13-0.08,0.19-0.12v0c0.13-0.08,0.25-0.16,0.38-0.23c1.76-1.07,3.65-2.1,5.61-3.08
		c0.06-0.03,0.12-0.06,0.18-0.09c10.38-5.11,21.57-7.71,33.25-7.71c11.81,0,23.11,2.65,33.58,7.87c0.06,0.03,0.12,0.05,0.18,0.08
		c1.66,0.83,3.33,1.74,4.96,2.72c0.08,0.04,0.15,0.09,0.22,0.13c0.26,0.16,0.51,0.34,0.77,0.52c0.05,0.03,0.09,0.06,0.14,0.09
		c0.13,0.08,0.25,0.17,0.37,0.26c0.07,0.05,0.14,0.1,0.21,0.15c0.13,0.09,0.26,0.18,0.38,0.28c0.04,0.03,0.09,0.06,0.13,0.09
		c0.03,0.02,0.05,0.04,0.08,0.06c0.17,0.12,0.33,0.24,0.49,0.37c0,0,0,0,0,0c0.06,0.04,0.12,0.09,0.17,0.13
		c0.09,0.07,0.17,0.13,0.25,0.2c0.12,0.09,0.23,0.18,0.35,0.28l0.25,0.2c0.07,0.06,0.14,0.12,0.21,0.18l0.02,0.02v0
		c0.15,0.12,0.29,0.24,0.44,0.37c0.4,0.34,0.79,0.69,1.17,1.04c0.24,0.21,0.47,0.44,0.7,0.66c0.26,0.25,0.51,0.5,0.77,0.77
		c0.25,0.25,0.49,0.51,0.72,0.76c0.14,0.14,0.28,0.29,0.4,0.44c0.13,0.14,0.25,0.28,0.37,0.42c0.09,0.1,0.17,0.19,0.25,0.29
		c0.03,0.03,0.09,0.07,0.18,0.17c1.44,1.67,1.47,1.6,2.9,3.92c0.05,0.08,0.11,0.16,0.16,0.25c0.18,0.28,0.35,0.54,0.51,0.8
		c0.2,0.34,0.39,0.66,0.57,0.98c0.18,0.3,0.34,0.59,0.51,0.9l0.39,0.73c5.83,10.86,8.91,23.16,8.91,35.58
		c0,11.91-2.7,23.3-8.01,33.87c-0.06,0.14-0.13,0.28-0.21,0.41c-0.01,0.03-0.03,0.06-0.05,0.09c-1.01,1.96-2.09,3.87-3.23,5.67h0
		c-0.08,0.12-0.16,0.25-0.25,0.36c-2.9,4.14-6.52,7.67-10.75,10.49c-0.01,0.01-0.03,0.02-0.04,0.03c-0.09,0.06-0.18,0.11-0.27,0.17
		c-1.69,1.02-3.47,1.99-5.29,2.9c-0.03,0.01-0.06,0.03-0.08,0.04c-0.07,0.04-0.15,0.07-0.22,0.11
		C211.04,311.43,199.84,314.03,188.15,314.03z M159.17,297.28c0.01,0,0.01,0.01,0.02,0.01c9.04,4.47,18.78,6.74,28.95,6.74
		c10.18,0,19.94-2.27,29-6.76c0.01,0,0.02-0.01,0.02-0.01c0.08-0.04,0.15-0.08,0.23-0.11c1.56-0.78,3.07-1.61,4.51-2.48
		c3.2-2.15,5.93-4.83,8.11-7.97c0-0.01,0.01-0.01,0.01-0.02c0.92-1.47,1.81-3.03,2.63-4.63c0.05-0.11,0.11-0.22,0.17-0.33
		c0.01-0.02,0.02-0.05,0.04-0.07c4.65-9.2,7-19.12,7-29.5c0-10.24-2.41-20.38-6.98-29.43c-1.08-2.06-1.08-2.06-2.42-4.28
		c-0.01-0.01-0.02-0.02-0.02-0.04c-0.01-0.01-0.02-0.02-0.02-0.04c-0.04-0.06-0.09-0.13-0.13-0.19c-0.08-0.12-0.16-0.24-0.24-0.35
		c-0.06-0.08-0.12-0.16-0.17-0.25l-0.34-0.47c-0.04-0.05-0.08-0.11-0.12-0.16c-0.03-0.04-0.06-0.08-0.09-0.12l-0.02-0.02
		c-0.05-0.06-0.09-0.11-0.13-0.17c-0.01-0.02-0.03-0.03-0.04-0.05c-0.04-0.05-0.09-0.11-0.13-0.17c-0.04-0.05-0.08-0.1-0.11-0.15
		l-0.08-0.09c-0.05-0.06-0.1-0.12-0.15-0.18c-0.04-0.05-0.08-0.1-0.11-0.15c-0.08-0.09-0.16-0.18-0.23-0.27
		c-0.02-0.02-0.03-0.04-0.05-0.06c-0.04-0.04-0.08-0.09-0.12-0.14c0,0-0.01-0.01-0.01-0.01c-0.04-0.05-0.08-0.09-0.12-0.14
		l-0.09-0.1c-0.04-0.04-0.08-0.09-0.11-0.13c-0.01-0.02,0.01,0,0.04,0.04c-0.12-0.12-0.24-0.25-0.35-0.39
		c-0.05-0.05-0.07-0.07-0.12-0.12c-0.17-0.19-0.34-0.37-0.52-0.55c-0.02-0.02-0.05-0.05-0.07-0.07c-0.18-0.19-0.36-0.37-0.54-0.54
		c-0.03-0.02-0.05-0.05-0.08-0.08c-0.13-0.13-0.27-0.26-0.4-0.38c-0.03-0.02-0.05-0.05-0.08-0.07c-0.27-0.25-0.54-0.5-0.82-0.74
		c-0.06-0.05-0.11-0.1-0.17-0.15l-0.13-0.1c-0.03-0.02-0.06-0.05-0.08-0.07c-0.05-0.04-0.11-0.09-0.17-0.14l-0.33-0.27
		c-0.09-0.06-0.16-0.12-0.24-0.19c-0.02-0.01-0.03-0.03-0.05-0.04c-0.04-0.03-0.08-0.06-0.12-0.09c-0.04-0.03-0.08-0.06-0.11-0.09
		c-0.06-0.04-0.11-0.09-0.17-0.13c-0.08-0.05-0.15-0.11-0.23-0.16c-0.05-0.04-0.1-0.07-0.15-0.11c-0.1-0.07-0.2-0.14-0.3-0.21
		c-0.06-0.04-0.12-0.08-0.18-0.13c-0.03-0.02-0.06-0.04-0.1-0.07c-0.08-0.05-0.16-0.11-0.23-0.16c-0.11-0.08-0.21-0.15-0.32-0.22
		c0,0,0,0,0,0c-0.02-0.01-0.03-0.02-0.05-0.03c-1.37-0.82-2.76-1.59-4.15-2.29c-0.07-0.03-0.13-0.06-0.2-0.09
		c-9.11-4.57-18.96-6.89-29.26-6.89c-10.17,0-19.91,2.27-28.95,6.74c-0.06,0.03-0.12,0.06-0.18,0.09c-1.73,0.86-3.32,1.74-4.8,2.64
		c-0.03,0.02-0.05,0.03-0.08,0.05c-0.01,0-0.01,0.01-0.02,0.01c-3.34,2.27-6.16,5.13-8.37,8.52c-0.74,1.23-1.45,2.5-2.1,3.78
		c-0.03,0.07-0.06,0.14-0.1,0.21c-4.71,9.25-7.1,19.23-7.1,29.68c0,10.35,2.34,20.25,6.95,29.4c0.06,0.11,0.12,0.23,0.18,0.34
		c0.01,0.02,0.02,0.04,0.03,0.07c0.79,1.55,1.67,3.1,2.6,4.6c0.01,0.01,0.02,0.03,0.03,0.04c2.16,3.16,4.89,5.86,8.11,8.02
		c0,0,0,0,0,0c1.56,0.94,3.11,1.78,4.6,2.52C159.01,297.2,159.09,297.24,159.17,297.28z M241.51,286.67
		C241.51,286.67,241.51,286.67,241.51,286.67C241.51,286.67,241.51,286.67,241.51,286.67z M241.73,286.28
		C241.73,286.28,241.73,286.28,241.73,286.28C241.73,286.28,241.73,286.28,241.73,286.28z M237.31,283.95L237.31,283.95
		L237.31,283.95z M229.82,217.49C229.82,217.49,229.82,217.49,229.82,217.49S229.82,217.49,229.82,217.49z M229.82,217.48
		C229.82,217.48,229.82,217.48,229.82,217.48C229.82,217.48,229.82,217.48,229.82,217.48z M229.81,217.47
		C229.81,217.47,229.81,217.48,229.81,217.47C229.81,217.48,229.81,217.47,229.81,217.47z M229.34,216.82
		c0.01,0.01,0.02,0.02,0.02,0.04c0,0,0-0.01-0.01-0.01C229.35,216.83,229.34,216.82,229.34,216.82
		C229.34,216.82,229.34,216.82,229.34,216.82z M229.33,216.81C229.33,216.81,229.33,216.81,229.33,216.81
		c-0.01-0.01-0.01-0.02-0.02-0.03c0,0,0,0,0,0C229.32,216.79,229.32,216.8,229.33,216.81z M229.31,216.77
		C229.31,216.77,229.31,216.77,229.31,216.77c0,0-0.01-0.01-0.01-0.02l0,0C229.3,216.76,229.31,216.77,229.31,216.77z
		 M227.95,215.07C227.95,215.08,227.95,215.08,227.95,215.07C227.95,215.08,227.95,215.08,227.95,215.07z M227.91,215.06
		C227.91,215.06,227.91,215.06,227.91,215.06C227.91,215.06,227.91,215.06,227.91,215.06z M227.89,215.04
		c0,0.01,0.01,0.01,0.02,0.02C227.9,215.05,227.89,215.05,227.89,215.04z M227.88,215.03C227.89,215.04,227.89,215.04,227.88,215.03
		C227.89,215.04,227.89,215.04,227.88,215.03z M227.58,214.54C227.58,214.54,227.58,214.54,227.58,214.54
		C227.58,214.54,227.58,214.54,227.58,214.54z M227.58,214.53C227.58,214.53,227.58,214.53,227.58,214.53
		C227.58,214.53,227.58,214.53,227.58,214.53z M232.55,212.83L232.55,212.83L232.55,212.83z M222.72,210.36
		C222.73,210.36,222.73,210.37,222.72,210.36C222.73,210.37,222.73,210.36,222.72,210.36z M222.21,210
		C222.21,210,222.21,210,222.21,210C222.21,210,222.21,210,222.21,210z M222.13,209.96C222.13,209.97,222.14,209.97,222.13,209.96
		C222.14,209.97,222.13,209.97,222.13,209.96z M222.11,209.95c0.01,0,0.01,0.01,0.02,0.01
		C222.12,209.96,222.12,209.95,222.11,209.95z M222.1,209.94C222.11,209.94,222.11,209.95,222.1,209.94
		C222.11,209.95,222.11,209.94,222.1,209.94z M231.09,204.25C231.09,204.25,231.09,204.25,231.09,204.25
		C231.09,204.25,231.09,204.25,231.09,204.25z M231.06,204.22c0.01,0.01,0.02,0.02,0.03,0.03
		C231.08,204.24,231.07,204.23,231.06,204.22z M231.05,204.22C231.05,204.22,231.05,204.22,231.05,204.22
		C231.05,204.22,231.05,204.22,231.05,204.22z M230.81,203.99l0.04,0.04C230.84,204.02,230.82,204.01,230.81,203.99z M228.99,202.58
		c0.03,0.02,0.05,0.04,0.08,0.06C229.04,202.62,229.01,202.59,228.99,202.58C228.99,202.58,228.99,202.58,228.99,202.58z"/>
</g>
</svg>
