<svg width="60" height="46" viewBox="0 0 60 46" fill="none" xmlns="http://www.w3.org/2000/svg">
<path d="M50.7925 3.92482C46.9683 2.17012 42.8675 0.877329 38.5797 0.136895C38.5017 0.122605 38.4237 0.158317 38.3834 0.229742C37.856 1.16778 37.2718 2.39153 36.8627 3.35339C32.251 2.66296 27.663 2.66296 23.1458 3.35339C22.7366 2.37015 22.1312 1.16778 21.6014 0.229742C21.5612 0.1607 21.4832 0.124988 21.4051 0.136895C17.1198 0.874963 13.0189 2.16775 9.19234 3.92482C9.15921 3.9391 9.13082 3.96293 9.11197 3.99386C1.33348 15.6148 -0.797376 26.95 0.24795 38.1448C0.25268 38.1995 0.283425 38.2519 0.325995 38.2852C5.45802 42.0541 10.4293 44.3421 15.3082 45.8587C15.3863 45.8825 15.469 45.8539 15.5187 45.7896C16.6728 44.2136 17.7016 42.5517 18.5837 40.8041C18.6357 40.7018 18.5861 40.5803 18.4797 40.5399C16.8478 39.9209 15.294 39.1661 13.7993 38.3091C13.6811 38.24 13.6716 38.0709 13.7804 37.99C14.0949 37.7543 14.4095 37.509 14.7099 37.2614C14.7642 37.2162 14.8399 37.2067 14.9038 37.2352C24.7232 41.7184 35.3539 41.7184 45.0574 37.2352C45.1213 37.2043 45.197 37.2138 45.2537 37.2591C45.5541 37.5067 45.8686 37.7543 46.1856 37.99C46.2943 38.0709 46.2872 38.24 46.169 38.3091C44.6743 39.1828 43.1205 39.9209 41.4863 40.5375C41.3799 40.578 41.3326 40.7018 41.3846 40.8041C42.2856 42.5493 43.3144 44.2111 44.4472 45.7873C44.4946 45.8539 44.5797 45.8825 44.6577 45.8587C49.5603 44.3421 54.5315 42.0541 59.6636 38.2852C59.7085 38.2519 59.7369 38.2019 59.7417 38.1471C60.9927 25.2048 57.6462 13.9625 50.8705 3.99623C50.854 3.96293 50.8257 3.9391 50.7925 3.92482ZM20.0501 31.3283C17.0937 31.3283 14.6578 28.6142 14.6578 25.281C14.6578 21.9478 17.0465 19.2337 20.0501 19.2337C23.0772 19.2337 25.4895 21.9716 25.4422 25.281C25.4422 28.6142 23.0535 31.3283 20.0501 31.3283ZM39.9869 31.3283C37.0306 31.3283 34.5947 28.6142 34.5947 25.281C34.5947 21.9478 36.9833 19.2337 39.9869 19.2337C43.0141 19.2337 45.4263 21.9716 45.3791 25.281C45.3791 28.6142 43.0141 31.3283 39.9869 31.3283Z" fill="white"/>
</svg>
