<svg width="60" height="46" viewBox="0 0 60 46" fill="none" xmlns="http://www.w3.org/2000/svg">
<path d="M50.7925 3.92436C46.9683 2.16966 42.8675 0.876871 38.5797 0.136437C38.5017 0.122147 38.4237 0.157859 38.3834 0.229284C37.856 1.16732 37.2718 2.39107 36.8627 3.35293C32.251 2.66251 27.663 2.66251 23.1458 3.35293C22.7366 2.36969 22.1312 1.16732 21.6014 0.229284C21.5612 0.160242 21.4832 0.12453 21.4051 0.136437C17.1198 0.874505 13.0189 2.16729 9.19234 3.92436C9.15921 3.93865 9.13082 3.96248 9.11197 3.99341C1.33348 15.6143 -0.797376 26.9496 0.24795 38.1443C0.25268 38.1991 0.283425 38.2515 0.325995 38.2848C5.45802 42.0536 10.4293 44.3416 15.3082 45.8582C15.3863 45.882 15.469 45.8535 15.5187 45.7892C16.6728 44.2131 17.7016 42.5513 18.5837 40.8037C18.6357 40.7013 18.5861 40.5799 18.4797 40.5394C16.8478 39.9204 15.294 39.1657 13.7993 38.3086C13.6811 38.2396 13.6716 38.0704 13.7804 37.9895C14.0949 37.7538 14.4095 37.5086 14.7099 37.261C14.7642 37.2157 14.8399 37.2062 14.9038 37.2348C24.7232 41.7179 35.3539 41.7179 45.0574 37.2348C45.1213 37.2038 45.197 37.2134 45.2537 37.2586C45.5541 37.5062 45.8686 37.7538 46.1856 37.9895C46.2943 38.0704 46.2872 38.2396 46.169 38.3086C44.6743 39.1823 43.1205 39.9204 41.4863 40.537C41.3799 40.5775 41.3326 40.7013 41.3846 40.8037C42.2856 42.5488 43.3144 44.2107 44.4472 45.7868C44.4946 45.8535 44.5797 45.882 44.6577 45.8582C49.5603 44.3416 54.5315 42.0536 59.6636 38.2848C59.7085 38.2515 59.7369 38.2014 59.7417 38.1467C60.9927 25.2043 57.6462 13.962 50.8705 3.99577C50.854 3.96248 50.8257 3.93865 50.7925 3.92436ZM20.0501 31.3279C17.0937 31.3279 14.6578 28.6138 14.6578 25.2806C14.6578 21.9474 17.0465 19.2332 20.0501 19.2332C23.0772 19.2332 25.4895 21.9712 25.4422 25.2806C25.4422 28.6138 23.0535 31.3279 20.0501 31.3279ZM39.9869 31.3279C37.0306 31.3279 34.5947 28.6138 34.5947 25.2806C34.5947 21.9474 36.9833 19.2332 39.9869 19.2332C43.0141 19.2332 45.4263 21.9712 45.3791 25.2806C45.3791 28.6138 43.0141 31.3279 39.9869 31.3279Z" fill="#26FBFF"/>
</svg>
