<svg width="1606" height="367" viewBox="0 0 1606 367" fill="none" xmlns="http://www.w3.org/2000/svg">
<g clip-path="url(#clip0_3_19)">
<path d="M803 374.403C912.023 374.403 1000.4 290.59 1000.4 187.202C1000.4 83.8131 912.023 0 803 0C693.977 0 605.596 83.8131 605.596 187.202C605.596 290.59 693.977 374.403 803 374.403Z" fill="#16287B"/>
<path d="M595.558 446.323C712.589 446.323 807.461 356.354 807.461 245.372C807.461 134.39 712.589 44.4207 595.558 44.4207C478.528 44.4207 383.656 134.39 383.656 245.372C383.656 356.354 478.528 446.323 595.558 446.323Z" fill="#16287B"/>
<path d="M343.506 453.726C452.529 453.726 540.91 369.913 540.91 266.524C540.91 163.136 452.529 79.3228 343.506 79.3228C234.482 79.3228 146.101 163.136 146.101 266.524C146.101 369.913 234.482 453.726 343.506 453.726Z" fill="#16287B"/>
<path d="M28.9972 409.305C138.02 409.305 226.401 325.492 226.401 222.104C226.401 118.715 138.02 34.902 28.9972 34.902C-80.0261 34.902 -168.407 118.715 -168.407 222.104C-168.407 325.492 -80.0261 409.305 28.9972 409.305Z" fill="#16287B"/>
<path d="M276.031 317.291C358.261 317.291 424.921 254.076 424.921 176.097C424.921 98.117 358.261 34.902 276.031 34.902C193.802 34.902 127.142 98.117 127.142 176.097C127.142 254.076 193.802 317.291 276.031 317.291Z" fill="#16287B"/>
<path d="M194.616 504.493C276.845 504.493 343.506 441.278 343.506 363.298C343.506 285.319 276.845 222.104 194.616 222.104C112.386 222.104 45.7263 285.319 45.7263 363.298C45.7263 441.278 112.386 504.493 194.616 504.493Z" fill="#16287B"/>
<path d="M1098.55 199.893C1150.9 199.893 1193.35 159.644 1193.35 109.994C1193.35 60.3443 1150.9 20.0951 1098.55 20.0951C1046.19 20.0951 1003.75 60.3443 1003.75 109.994C1003.75 159.644 1046.19 199.893 1098.55 199.893Z" fill="#16287B"/>
<path d="M1508.97 453.726C1635.24 453.726 1737.6 356.655 1737.6 236.911C1737.6 117.167 1635.24 20.0951 1508.97 20.0951C1382.7 20.0951 1280.34 117.167 1280.34 236.911C1280.34 356.655 1382.7 453.726 1508.97 453.726Z" fill="#16287B"/>
<path d="M1225.13 394.499C1327.07 394.499 1409.71 316.131 1409.71 219.46C1409.71 122.788 1327.07 44.4207 1225.13 44.4207C1123.19 44.4207 1040.55 122.788 1040.55 219.46C1040.55 316.131 1123.19 394.499 1225.13 394.499Z" fill="#16287B"/>
<path d="M993.712 231.622C1041.76 231.622 1080.7 194.688 1080.7 149.127C1080.7 103.566 1041.76 66.6311 993.712 66.6311C945.668 66.6311 906.721 103.566 906.721 149.127C906.721 194.688 945.668 231.622 993.712 231.622Z" fill="#16287B"/>
<path d="M992.04 474.879C1077.96 474.879 1147.62 408.823 1147.62 327.339C1147.62 245.854 1077.96 179.798 992.04 179.798C906.114 179.798 836.458 245.854 836.458 327.339C836.458 408.823 906.114 474.879 992.04 474.879Z" fill="#16287B"/>
<path d="M1413.61 474.879C1499.54 474.879 1569.2 408.823 1569.2 327.339C1569.2 245.854 1499.54 179.798 1413.61 179.798C1327.69 179.798 1258.03 245.854 1258.03 327.339C1258.03 408.823 1327.69 474.879 1413.61 474.879Z" fill="#16287B"/>
<path d="M1569.75 464.303C1655.68 464.303 1725.33 398.247 1725.33 316.762C1725.33 235.278 1655.68 169.222 1569.75 169.222C1483.83 169.222 1414.17 235.278 1414.17 316.762C1414.17 398.247 1483.83 464.303 1569.75 464.303Z" fill="#16287B"/>
</g>
<defs>
<clipPath id="clip0_3_19">
<rect width="1606" height="367" fill="white"/>
</clipPath>
</defs>
</svg>
