<svg width="72" height="73" viewBox="0 0 72 73" fill="none" xmlns="http://www.w3.org/2000/svg">
<path fill-rule="evenodd" clip-rule="evenodd" d="M36 9.125C28.6668 9.125 27.7488 9.15603 24.8688 9.28925C21.9942 9.42248 20.0304 9.88603 18.3132 10.5631C16.5132 11.2493 14.8806 12.326 13.5306 13.7203C12.1576 15.0875 11.0949 16.7416 10.4166 18.5675C9.7524 20.3086 9.2934 22.3015 9.162 25.216C9.0324 28.1342 9 29.0631 9 36.5C9 43.9369 9.0306 44.8658 9.162 47.7858C9.2934 50.7003 9.7506 52.6914 10.4184 54.4325C11.0952 56.2575 12.1572 57.9127 13.5324 59.2815C14.8809 60.6735 16.5123 61.7509 18.3132 62.4387C20.0304 63.114 21.9942 63.5775 24.8688 63.7108C27.7488 63.844 28.6668 63.875 36 63.875C43.3332 63.875 44.2512 63.844 47.1312 63.7108C50.0058 63.5775 51.9696 63.114 53.6868 62.4369C55.4868 61.7507 57.1194 60.674 58.4694 59.2797C59.8424 57.9125 60.9051 56.2584 61.5834 54.4325C62.2494 52.6914 62.7066 50.7003 62.838 47.7858C62.9694 44.8658 63 43.9351 63 36.5C63 29.065 62.9694 28.1342 62.838 25.2142C62.7066 22.2997 62.2494 20.3086 61.5816 18.5675C60.9037 16.7408 59.841 15.086 58.4676 13.7185C57.1192 12.3265 55.4877 11.249 53.6868 10.5613C51.9696 9.88785 50.004 9.42248 47.1294 9.28925C44.2512 9.15785 43.335 9.125 36 9.125ZM36 14.058C43.209 14.058 44.064 14.0854 46.9116 14.2168C49.5432 14.339 50.9724 14.7825 51.9246 15.1603C53.1846 15.6549 54.0846 16.2498 55.0296 17.2061C55.9746 18.1642 56.5596 19.0767 57.0474 20.3542C57.4182 21.3196 57.8574 22.7687 57.978 25.4368C58.1076 28.324 58.1346 29.1909 58.1346 36.5C58.1346 43.8091 58.1076 44.676 57.978 47.5632C57.8574 50.2313 57.42 51.6804 57.0474 52.6458C56.6153 53.8348 55.9258 54.9106 55.0296 55.7939C54.1585 56.7027 53.0975 57.4018 51.9246 57.8397C50.9724 58.2157 49.5432 58.661 46.9116 58.7832C44.064 58.9146 43.2108 58.942 36 58.942C28.7892 58.942 27.936 58.9146 25.0884 58.7832C22.4568 58.661 21.0276 58.2175 20.0754 57.8397C18.9026 57.4016 17.8416 56.7025 16.9704 55.7939C16.0743 54.9105 15.3848 53.8348 14.9526 52.6458C14.5818 51.6804 14.1426 50.2313 14.022 47.5632C13.8924 44.676 13.8654 43.8091 13.8654 36.5C13.8654 29.1909 13.8924 28.324 14.022 25.4368C14.1426 22.7687 14.58 21.3196 14.9526 20.3542C15.4404 19.0767 16.0272 18.1642 16.9704 17.2061C17.8415 16.2973 18.9025 15.5982 20.0754 15.1603C21.0276 14.7843 22.4568 14.339 25.0884 14.2168C27.936 14.0854 28.791 14.058 36 14.058Z" fill="#26FBFF"/>
<path fill-rule="evenodd" clip-rule="evenodd" d="M36 45.6341C34.8169 45.6341 33.6454 45.3979 32.5524 44.9388C31.4594 44.4798 30.4662 43.807 29.6297 42.9588C28.7931 42.1106 28.1295 41.1037 27.6768 39.9955C27.224 38.8873 26.991 37.6995 26.991 36.5C26.991 35.3005 27.224 34.1127 27.6768 33.0045C28.1295 31.8963 28.7931 30.8894 29.6297 30.0412C30.4662 29.193 31.4594 28.5202 32.5524 28.0612C33.6454 27.6021 34.8169 27.3659 36 27.3659C38.3893 27.3659 40.6808 28.3282 42.3703 30.0412C44.0598 31.7542 45.009 34.0775 45.009 36.5C45.009 38.9225 44.0598 41.2458 42.3703 42.9588C40.6808 44.6718 38.3893 45.6341 36 45.6341ZM36 22.4292C32.3193 22.4292 28.7894 23.9117 26.1868 26.5505C23.5842 29.1893 22.122 32.7682 22.122 36.5C22.122 40.2318 23.5842 43.8107 26.1868 46.4495C28.7894 49.0883 32.3193 50.5707 36 50.5707C39.6807 50.5707 43.2106 49.0883 45.8132 46.4495C48.4159 43.8107 49.878 40.2318 49.878 36.5C49.878 32.7682 48.4159 29.1893 45.8132 26.5505C43.2106 23.9117 39.6807 22.4292 36 22.4292ZM53.9154 22.1737C53.9154 23.0559 53.5698 23.9019 52.9546 24.5256C52.3394 25.1494 51.5049 25.4998 50.6349 25.4998C49.7649 25.4998 48.9305 25.1494 48.3152 24.5256C47.7 23.9019 47.3544 23.0559 47.3544 22.1737C47.3544 21.2916 47.7 20.4456 48.3152 19.8219C48.9305 19.1981 49.7649 18.8477 50.6349 18.8477C51.5049 18.8477 52.3394 19.1981 52.9546 19.8219C53.5698 20.4456 53.9154 21.2916 53.9154 22.1737Z" fill="#26FBFF"/>
</svg>
