<svg width="54" height="55" viewBox="0 0 54 55" fill="none" xmlns="http://www.w3.org/2000/svg">
<path fill-rule="evenodd" clip-rule="evenodd" d="M27 0.125C19.6668 0.125 18.7488 0.156025 15.8688 0.28925C12.9942 0.422475 11.0304 0.886025 9.3132 1.5631C7.5132 2.2493 5.8806 3.32605 4.5306 4.72035C3.1576 6.08752 2.09494 7.74163 1.4166 9.56755C0.7524 11.3086 0.2934 13.3015 0.162 16.216C0.0324 19.1342 0 20.0631 0 27.5C0 34.9369 0.0306 35.8658 0.162 38.7858C0.2934 41.7003 0.7506 43.6914 1.4184 45.4325C2.0952 47.2575 3.1572 48.9127 4.5324 50.2815C5.88088 51.6735 7.51232 52.7509 9.3132 53.4387C11.0304 54.114 12.9942 54.5775 15.8688 54.7108C18.7488 54.844 19.6668 54.875 27 54.875C34.3332 54.875 35.2512 54.844 38.1312 54.7108C41.0058 54.5775 42.9696 54.114 44.6868 53.4369C46.4868 52.7507 48.1194 51.674 49.4694 50.2797C50.8424 48.9125 51.9051 47.2584 52.5834 45.4325C53.2494 43.6914 53.7066 41.7003 53.838 38.7858C53.9694 35.8658 54 34.9351 54 27.5C54 20.065 53.9694 19.1342 53.838 16.2142C53.7066 13.2997 53.2494 11.3086 52.5816 9.56755C51.9037 7.74084 50.841 6.08604 49.4676 4.71853C48.1192 3.32645 46.4877 2.24904 44.6868 1.56128C42.9696 0.88785 41.004 0.422475 38.1294 0.28925C35.2512 0.15785 34.335 0.125 27 0.125ZM27 5.05798C34.209 5.05798 35.064 5.08535 37.9116 5.21675C40.5432 5.33903 41.9724 5.7825 42.9246 6.16028C44.1846 6.65485 45.0846 7.2498 46.0296 8.2061C46.9746 9.16423 47.5596 10.0767 48.0474 11.3542C48.4182 12.3197 48.8574 13.7687 48.978 16.4368C49.1076 19.324 49.1346 20.1909 49.1346 27.5C49.1346 34.8091 49.1076 35.676 48.978 38.5632C48.8574 41.2313 48.42 42.6804 48.0474 43.6458C47.6153 44.8348 46.9258 45.9106 46.0296 46.7939C45.1585 47.7027 44.0975 48.4018 42.9246 48.8397C41.9724 49.2157 40.5432 49.661 37.9116 49.7832C35.064 49.9146 34.2108 49.942 27 49.942C19.7892 49.942 18.936 49.9146 16.0884 49.7832C13.4568 49.661 12.0276 49.2175 11.0754 48.8397C9.90262 48.4016 8.84161 47.7025 7.9704 46.7939C7.07432 45.9105 6.38483 44.8348 5.9526 43.6458C5.5818 42.6804 5.1426 41.2313 5.022 38.5632C4.8924 35.676 4.8654 34.8091 4.8654 27.5C4.8654 20.1909 4.8924 19.324 5.022 16.4368C5.1426 13.7687 5.58 12.3197 5.9526 11.3542C6.4404 10.0767 7.0272 9.16423 7.9704 8.2061C8.84149 7.29733 9.90254 6.59823 11.0754 6.16028C12.0276 5.78433 13.4568 5.33903 16.0884 5.21675C18.936 5.08535 19.791 5.05798 27 5.05798V5.05798Z" fill="white"/>
<path fill-rule="evenodd" clip-rule="evenodd" d="M27 36.6341C25.8169 36.6341 24.6454 36.3978 23.5524 35.9388C22.4594 35.4798 21.4662 34.807 20.6297 33.9588C19.7931 33.1106 19.1295 32.1037 18.6768 30.9954C18.224 29.8872 17.991 28.6995 17.991 27.5C17.991 26.3005 18.224 25.1127 18.6768 24.0045C19.1295 22.8963 19.7931 21.8893 20.6297 21.0412C21.4662 20.193 22.4594 19.5202 23.5524 19.0611C24.6454 18.6021 25.8169 18.3658 27 18.3658C29.3893 18.3658 31.6808 19.3282 33.3703 21.0412C35.0598 22.7541 36.009 25.0774 36.009 27.5C36.009 29.9225 35.0598 32.2458 33.3703 33.9588C31.6808 35.6718 29.3893 36.6341 27 36.6341V36.6341ZM27 13.4292C23.3193 13.4292 19.7894 14.9117 17.1868 17.5504C14.5842 20.1892 13.122 23.7682 13.122 27.5C13.122 31.2318 14.5842 34.8107 17.1868 37.4495C19.7894 40.0883 23.3193 41.5707 27 41.5707C30.6807 41.5707 34.2106 40.0883 36.8132 37.4495C39.4159 34.8107 40.878 31.2318 40.878 27.5C40.878 23.7682 39.4159 20.1892 36.8132 17.5504C34.2106 14.9117 30.6807 13.4292 27 13.4292V13.4292ZM44.9154 13.1737C44.9154 14.0558 44.5698 14.9018 43.9546 15.5256C43.3394 16.1494 42.5049 16.4998 41.6349 16.4998C40.7649 16.4998 39.9305 16.1494 39.3152 15.5256C38.7 14.9018 38.3544 14.0558 38.3544 13.1737C38.3544 12.2916 38.7 11.4456 39.3152 10.8218C39.9305 10.1981 40.7649 9.84766 41.6349 9.84766C42.5049 9.84766 43.3394 10.1981 43.9546 10.8218C44.5698 11.4456 44.9154 12.2916 44.9154 13.1737" fill="white"/>
</svg>
