<svg width="561" height="332" viewBox="0 0 561 332" fill="none" xmlns="http://www.w3.org/2000/svg">
<g filter="url(#filter0_d_41_145)">
<path d="M202.652 241.729C207.872 241.365 213.086 242.333 216.53 244.361C221.564 247.488 223.419 251.859 223.714 256.14C223.724 256.296 223.734 256.449 223.741 256.605C223.772 258.64 223.783 261.042 220.844 262.665C220.072 263.084 219.151 263.309 218.202 263.375C215.793 263.542 213.242 262.675 212.709 261.361C212.653 259.555 212.83 257.721 212.705 255.915C212.664 255.298 212.584 254.688 212.449 254.081C211.843 251.776 211.178 249.252 208.194 247.585C206.889 246.791 204.93 246.517 202.977 246.652C201.811 246.732 200.644 246.961 199.623 247.311C195.33 248.892 192.492 251.426 190.221 253.915C184.467 260.553 181.324 267.723 180.178 274.833C179.832 277.623 179.78 280.414 179.97 283.187C180.164 286.002 180.614 288.8 181.265 291.563C182.508 296.17 184.01 300.909 188.241 304.857C190.186 306.795 193.402 308.543 197.615 308.709C198.186 308.744 198.757 308.74 199.322 308.699C202.07 308.508 204.66 307.492 206.311 306.196C210.953 302.413 212.619 297.907 213.654 293.573C213.771 292.065 214.848 290.235 217.649 289.566C218.064 289.469 218.479 289.41 218.888 289.382C221.643 289.192 224.146 290.429 224.718 291.871C224.78 292.135 224.818 292.405 224.835 292.672C224.946 294.277 224.351 295.924 223.807 297.525C222.073 302.081 219.379 306.84 213.404 310.442C210.15 312.547 205.446 313.791 200.71 314.12C199.876 314.179 199.041 314.207 198.211 314.211C191.443 314.349 185.166 312.609 180.953 309.926C174.622 305.755 171.676 300.275 169.98 294.825C168.976 291.317 168.318 287.753 168.069 284.161C167.736 279.374 168.131 274.535 169.401 269.716C171.413 262.737 174.937 255.603 182.349 249.512C186.807 245.751 193.71 242.461 201.728 241.813C202.032 241.775 202.344 241.75 202.652 241.729Z" fill="white"/>
<path d="M272.906 241.996C273.1 241.976 273.297 241.962 273.491 241.948C277.867 241.653 282.055 242.877 284.825 244.777C289.478 248.136 291.645 252.532 293.147 256.855C294.926 262.484 295.782 269.296 296.252 276.299C296.612 281.672 296.744 287.16 296.893 292.308C297.059 292.308 297.298 292.294 297.596 292.273C298.104 292.239 298.779 292.183 299.527 292.135C301.701 291.989 304.491 291.885 305.613 292.471C306.139 292.745 306.444 293.154 306.472 293.587C306.513 294.194 306.011 294.846 304.813 295.241C303.688 295.504 302.529 295.633 301.352 295.712C300.13 295.796 298.897 295.827 297.679 295.907C297.343 295.931 297.007 295.955 296.675 295.986C296.585 300.68 296.398 305.381 296.637 310.057C296.654 310.13 296.664 310.2 296.668 310.269C296.758 311.607 294.618 312.734 292.555 312.976C292.257 313.018 291.949 313.053 291.634 313.073C289.44 313.223 286.968 312.807 286.251 311.482C286.203 310.973 286.161 310.46 286.127 309.947C285.832 305.54 286.043 301.1 285.953 296.683C276.468 297.383 266.993 298.17 257.532 299.075C257.629 302.282 257.909 305.475 257.999 308.681C258.048 310.366 258.294 312.158 258.138 313.729C258.027 314.841 256.39 315.465 254.565 315.59C252.523 315.729 250.248 315.237 249.604 314.089C248.853 309.503 248.597 304.681 248.223 300.06C247.379 300.143 244.388 300.6 242.127 300.753C241.082 300.822 240.192 300.829 239.745 300.701C239.115 300.521 238.683 300.094 238.651 299.63C238.627 299.241 238.88 298.832 239.531 298.517C242.072 297.467 245.177 297.359 248.019 296.915C247.607 286.619 246.389 274.399 248.86 264.065C250.311 258.421 252.173 252.618 257.044 247.519C260.004 244.229 266.415 242.516 272.549 242.017C272.667 242.014 272.788 242.003 272.906 241.996ZM273.055 247.834C270.687 247.994 268.44 249.003 267.094 250.167C263.839 253.093 262.444 256.113 261.229 259.912C257.74 271.591 257.414 284.089 257.445 295.785C266.914 294.756 276.413 293.889 285.919 293.14C285.825 287.403 285.739 281.419 285.341 275.495C285.05 271.168 284.593 266.877 283.845 262.737C282.866 258.026 281.837 254.553 278.441 250.323C277.406 249.089 275.675 247.682 273.072 247.831L273.055 247.834Z" fill="white"/>
<path d="M332.847 242.607C341.114 242.607 349.381 242.634 357.641 242.78C360.922 242.839 364.208 242.78 367.482 242.991C369.857 243.144 372.436 243.501 372.474 245.109C372.364 246.434 370.072 247.172 368.161 247.304C361.968 247.734 355.698 247.564 349.481 247.734C350.073 262.269 350.295 277.19 350.295 291.899C350.295 296.177 350.277 300.437 350.243 304.663C350.198 305.381 350.191 306.099 350.191 306.816C350.191 307.239 350.194 307.662 350.194 308.081C350.194 308.865 350.184 309.648 350.128 310.432C349.966 312.671 346.975 314.914 343.132 314.914C343.066 314.914 343.004 314.914 342.938 314.911C340.304 314.859 338.545 313.254 338.538 311.794C338.424 290.7 337.998 268.977 337.832 247.883C337.493 247.883 337.154 247.886 336.818 247.886C331.684 247.886 326.557 247.706 321.42 247.647C318.276 247.612 315.372 246.735 315.372 244.898C315.372 244.797 315.379 244.693 315.4 244.589C315.708 243.224 318.204 242.613 320.232 242.613C320.256 242.613 320.284 242.613 320.308 242.613C324.483 242.613 328.665 242.607 332.847 242.607Z" fill="white"/>
<path d="M412.631 314.041C411.247 314.138 409.858 314.179 408.477 314.165C402.049 314.179 395.585 312.772 391.577 309.791C386.744 306.185 385.681 301.252 385.332 296.572C385.332 296.565 385.332 296.558 385.332 296.551C385.183 294.374 386.99 291.986 390.493 291.105C390.808 291.025 391.127 290.977 391.442 290.956C393.159 290.838 394.786 291.521 395.26 292.478C396.326 294.617 396.184 296.96 396.766 299.176C397.552 302.157 398.49 303.464 402.038 305.582C404.032 306.795 406.909 307.225 409.761 307.028C411.399 306.913 413.033 306.594 414.48 306.099C420.15 304.091 423.56 302.088 424.467 298.319C424.723 297.089 424.81 295.848 424.727 294.62C424.474 290.942 422.688 287.361 419.403 284.401C413.67 279.388 404.455 276.514 397.392 272.302C391.712 269.026 387.596 264.547 387.215 259.562C387.204 259.465 387.197 259.368 387.191 259.274C386.779 253.315 392.169 247.051 400.865 243.844C403.43 242.846 406.379 242.225 409.346 242.021C416.73 241.511 424.086 243.258 427.458 245.103C432.53 248.021 434.056 252.483 434.846 256.705C434.87 256.844 434.891 256.983 434.898 257.121C435.033 259.063 433.603 261.115 430.671 262.1C429.996 262.325 429.213 262.477 428.431 262.529C426.78 262.644 425.128 262.328 424.481 261.406C424.183 260.98 424.066 260.519 424.035 260.044C423.983 259.285 424.138 258.491 424.086 257.742C424.083 257.704 424.08 257.666 424.076 257.631C423.82 255.041 423.505 252.209 421.078 250.067C419.891 248.836 413.137 246.902 409.665 247.581C409.481 247.616 409.291 247.612 409.104 247.633C405.154 247.994 401.768 249.855 400.1 252.029C398.684 253.946 398.102 256.016 398.241 258.051C398.4 260.359 399.49 262.616 401.36 264.533C405.071 268.177 411.323 270.354 416.751 272.912C424.356 276.337 433.828 282.383 436.975 287.933C438.384 290.273 439.239 292.797 439.415 295.362C439.668 299.027 438.533 302.767 435.635 306.154C431.799 310.733 421.289 313.243 412.943 314.016C412.842 314.027 412.739 314.034 412.631 314.041Z" fill="white"/>
<path d="M224.697 86.5476C212.688 45.738 175.546 17.2836 133.271 16.1465C127.739 15.994 122.12 16.3164 116.457 17.1345C111.503 17.8521 106.691 18.9268 102.042 20.3343C99.4417 18.282 96.7381 16.3684 93.9479 14.5935C93.9444 14.59 93.9409 14.5865 93.9375 14.5831C92.5631 13.7025 91.1646 12.8636 89.7418 12.0593C89.7418 12.0593 89.7383 12.0524 89.7348 12.0559C89.7279 12.0524 89.7245 12.0455 89.7141 12.0455C83.1539 8.67933 75.531 7.2476 67.6831 8.38466C66.7969 8.51293 65.9176 8.6724 65.0556 8.86307C64.1902 9.05027 63.3386 9.26867 62.5008 9.51827C62.577 9.94467 62.6531 10.3641 62.7431 10.7836C64.5121 19.3567 69.1752 26.6817 75.5484 31.8713C75.8426 32.0273 76.1403 32.1868 76.4346 32.3532C76.3827 32.3844 76.3307 32.4156 76.2857 32.4537C62.7708 41.4255 51.7346 53.6004 44.1013 67.7409C42.2423 71.1799 40.5841 74.7332 39.1405 78.3871C37.8008 81.7913 36.6411 85.2788 35.6822 88.8356C39.1856 85.0327 42.997 81.5036 47.0785 78.2831C48.5601 77.1148 50.0799 75.9881 51.6342 74.9031C63.7851 66.4132 78.0443 60.5615 93.709 58.2908C97.8562 57.6911 101.976 57.3583 106.057 57.282C106.41 57.7223 106.76 58.166 107.103 58.6097C108.114 59.9236 109.097 61.2652 110.042 62.638C118.43 74.754 124.218 88.9535 126.468 104.536C129.109 122.823 126.544 140.662 119.898 156.547C134.984 136.374 142.368 110.433 138.481 83.5177C137.373 75.8564 135.413 68.5313 132.706 61.6223V61.6188C132.54 61.1924 132.37 60.7625 132.194 60.3396C137.549 61.7159 142.752 63.5393 147.748 65.7753C147.775 65.7857 147.8 65.7996 147.827 65.81C150.105 66.7703 152.321 67.8657 154.46 69.0895C154.488 69.1033 154.509 69.1172 154.536 69.1311C170.36 78.2103 182.002 94.2297 184.817 113.705C189.805 148.23 166.403 178.504 132.838 183.368C130.529 183.704 128.23 183.902 125.952 183.978C125.938 183.982 125.925 183.978 125.907 183.978C121.881 184.11 117.917 183.836 114.061 183.202C114.051 183.198 114.044 183.198 114.037 183.198C110.897 182.803 107.795 182.248 104.742 181.552C101.837 180.893 98.9779 180.103 96.1703 179.187C83.7078 175.128 72.2319 168.621 62.4073 160.148C65.7757 158.717 68.8601 156.807 71.595 154.508C73.6236 152.813 75.4583 150.903 77.0681 148.812C77.0715 148.809 77.075 148.805 77.0819 148.799C78.7332 146.667 80.1491 144.354 81.3019 141.9C81.3054 141.896 81.3088 141.893 81.3088 141.889C82.8666 138.021 83.4551 133.701 82.8147 129.271C82.3681 126.182 81.3642 123.312 79.9172 120.753C76.5557 114.791 70.8057 110.492 64.1452 108.956C61.2857 108.291 58.2566 108.141 55.1756 108.589C46.1957 109.889 39.0713 115.931 35.9626 123.814C34.699 127.021 34.0967 130.533 34.3079 134.152V134.155C34.3044 134.159 34.3044 134.159 34.3079 134.162V134.166C34.9241 137.227 35.6822 140.225 36.5754 143.158C36.5754 143.162 36.5754 143.162 36.5754 143.165C37.4477 146.046 38.4482 148.861 39.5664 151.61C28.0593 150.362 17.8608 143.713 12 133.933C15.4203 150.06 29.0909 161.726 45.0706 162.984C51.4092 174.181 59.8456 183.916 69.7671 191.737H69.7706C74.0425 195.103 78.5878 198.115 83.3616 200.736C101.394 210.644 122.664 214.977 144.584 211.802C167.757 208.446 187.867 197.235 202.614 181.253C222.017 160.228 232.133 130.935 227.719 100.39C227.027 95.6407 226.016 91.0196 224.697 86.5476ZM46.6388 134.488C45.673 127.811 50.2979 121.613 56.9688 120.649C63.6363 119.682 69.826 124.313 70.7884 130.99C71.4531 135.594 69.466 139.965 65.9799 142.555C64.4083 143.727 62.532 144.531 60.4618 144.833C53.7944 145.8 47.6047 141.168 46.6388 134.488Z" fill="white"/>
<path d="M290.353 215.258C280.421 215.258 270.905 213.036 262.07 208.651C262.025 208.63 261.977 208.609 261.932 208.588C259.374 207.309 256.881 205.849 254.524 204.244C254.475 204.21 254.427 204.175 254.378 204.137C249.193 200.244 245.014 195.082 242.293 189.203C241.514 187.521 240.853 185.777 240.334 184.023C240.323 183.989 240.313 183.954 240.303 183.919C239.839 182.366 239.465 180.751 239.198 179.111C238.461 175.194 238.084 171.169 238.084 167.155C238.084 163.092 238.468 159.032 239.223 155.073C237.855 153.187 236.654 151.166 235.64 149.059C233.088 143.73 231.797 138.021 231.797 132.075C231.797 129.839 231.984 127.614 232.354 125.461C232.41 125.111 232.479 124.729 232.555 124.359C233.147 121.388 234.089 118.476 235.356 115.706C235.636 115.096 236.152 114.631 236.785 114.416C237.696 114.111 238.62 113.834 239.527 113.601C239.551 113.595 239.572 113.591 239.596 113.584C242.169 112.932 247.126 112.444 247.919 112.392V112.388C248.365 112.371 248.829 112.36 249.331 112.36C255.085 112.36 260.623 113.577 265.795 115.98C267.616 116.822 269.375 117.807 271.04 118.923C274.318 117.879 277.707 117.103 281.131 116.607C287.21 115.727 293.5 115.727 299.579 116.607C303.003 117.103 306.392 117.883 309.67 118.923C311.335 117.81 313.097 116.822 314.922 115.98C320.087 113.581 325.626 112.364 331.379 112.364C331.874 112.364 332.331 112.371 332.771 112.388C332.774 112.388 332.781 112.388 332.785 112.388C335.592 112.485 338.396 112.887 341.117 113.584C341.138 113.588 341.159 113.595 341.18 113.598C342.087 113.834 343.011 114.108 343.921 114.413C344.555 114.628 345.074 115.092 345.351 115.702C346.618 118.472 347.56 121.384 348.152 124.365C348.224 124.723 348.294 125.104 348.356 125.485C348.723 127.61 348.91 129.836 348.91 132.072C348.91 138.014 347.619 143.727 345.067 149.052V149.055C344.053 151.163 342.852 153.184 341.484 155.07C342.242 159.032 342.623 163.092 342.623 167.151C342.623 171.169 342.249 175.19 341.512 179.108C341.242 180.761 340.868 182.391 340.397 183.954C340.39 183.975 340.387 183.992 340.38 184.013C339.857 185.771 339.196 187.514 338.417 189.203C335.696 195.079 331.518 200.24 326.332 204.137C326.283 204.175 326.235 204.21 326.187 204.244C323.829 205.846 321.337 207.309 318.778 208.588C318.733 208.612 318.685 208.633 318.64 208.654C309.798 213.036 300.285 215.258 290.353 215.258ZM264.016 204.199C264.068 204.224 264.123 204.248 264.172 204.272C272.328 208.335 281.145 210.401 290.353 210.401C299.562 210.401 308.379 208.335 316.559 204.258C316.601 204.237 316.646 204.217 316.691 204.196C319 203.038 321.25 201.717 323.379 200.275C327.945 196.857 331.622 192.319 334.014 187.154C334.699 185.673 335.277 184.141 335.734 182.602C335.738 182.588 335.741 182.574 335.748 182.56C335.748 182.557 335.752 182.553 335.752 182.55C336.163 181.181 336.492 179.749 336.728 178.296C336.731 178.276 336.735 178.255 336.738 178.234C337.424 174.604 337.773 170.874 337.773 167.148C337.773 163.05 337.351 158.952 336.52 154.98C336.375 154.286 336.541 153.562 336.974 153C338.414 151.128 339.667 149.093 340.695 146.951C342.928 142.288 344.06 137.279 344.06 132.072C344.06 130.113 343.897 128.165 343.572 126.283C343.516 125.943 343.461 125.634 343.399 125.326C342.945 123.052 342.263 120.826 341.367 118.694C340.917 118.555 340.466 118.431 340.02 118.313C339.999 118.309 339.982 118.302 339.961 118.299C337.565 117.682 335.097 117.325 332.626 117.238C332.615 117.238 332.605 117.238 332.594 117.238C332.21 117.224 331.812 117.217 331.369 117.217C326.325 117.217 321.472 118.285 316.944 120.386C315.015 121.277 313.17 122.351 311.457 123.579C310.823 124.033 310.006 124.154 309.269 123.904C305.911 122.764 302.414 121.925 298.876 121.412C293.261 120.597 287.435 120.597 281.82 121.412C278.282 121.925 274.786 122.764 271.428 123.904C270.69 124.157 269.873 124.036 269.24 123.579C267.526 122.351 265.681 121.277 263.756 120.386C259.225 118.281 254.375 117.214 249.328 117.214C248.909 117.214 248.528 117.221 248.164 117.235C246.78 117.359 242.653 117.807 240.739 118.299C240.718 118.302 240.701 118.309 240.68 118.313C240.233 118.427 239.783 118.555 239.333 118.694C238.437 120.826 237.755 123.048 237.305 125.315C237.239 125.634 237.184 125.943 237.135 126.255C236.806 128.165 236.643 130.113 236.643 132.072C236.643 137.282 237.775 142.288 240.008 146.951C241.037 149.093 242.29 151.128 243.73 153C244.163 153.562 244.329 154.286 244.183 154.98C243.352 158.956 242.93 163.05 242.93 167.148C242.93 170.871 243.28 174.601 243.965 178.234C243.969 178.255 243.972 178.276 243.976 178.296C244.211 179.749 244.54 181.181 244.952 182.55C244.959 182.574 244.966 182.599 244.973 182.623C245.43 184.159 246.004 185.684 246.69 187.161C249.082 192.326 252.758 196.864 257.324 200.282C259.457 201.724 261.707 203.041 264.016 204.199ZM264.144 204.262C264.144 204.262 264.148 204.262 264.148 204.265C264.148 204.262 264.144 204.262 264.144 204.262ZM264.026 204.206C264.04 204.213 264.058 204.22 264.071 204.227C264.058 204.22 264.044 204.213 264.026 204.206ZM335.696 182.782V182.786V182.782Z" fill="white"/>
<path d="M246.849 147.949C246.188 147.949 245.578 147.571 245.288 146.965C243.591 143.418 242.729 139.612 242.729 135.656C242.729 131.798 243.55 128.082 245.166 124.615C245.391 124.13 245.831 123.776 246.354 123.658C248.244 123.228 250.196 123.013 252.152 123.013C256.753 123.013 261.281 124.23 265.241 126.529C265.847 126.882 266.183 127.562 266.09 128.259C265.996 128.955 265.494 129.524 264.816 129.704C256.646 131.871 250.408 138.347 248.538 146.601C248.376 147.322 247.777 147.856 247.043 147.939C246.977 147.946 246.911 147.949 246.849 147.949ZM247.957 126.861C246.787 129.642 246.191 132.595 246.191 135.653C246.191 137.445 246.395 139.199 246.797 140.905C249.39 135.095 254.011 130.439 259.82 127.808C257.373 126.927 254.776 126.473 252.149 126.473C250.74 126.477 249.331 126.605 247.957 126.861Z" fill="white"/>
<path d="M333.577 147.953C333.512 147.953 333.446 147.949 333.384 147.942C332.653 147.859 332.054 147.322 331.892 146.604C330.026 138.347 323.791 131.871 315.618 129.704C314.939 129.524 314.437 128.955 314.347 128.259C314.254 127.565 314.586 126.882 315.192 126.529C319.149 124.227 323.673 123.01 328.277 123.01C330.24 123.01 332.193 123.228 334.079 123.655C334.602 123.773 335.038 124.126 335.263 124.612C336.88 128.078 337.701 131.795 337.701 135.656C337.701 139.619 336.839 143.425 335.139 146.972C334.848 147.575 334.239 147.953 333.577 147.953ZM320.606 127.811C326.418 130.443 331.04 135.102 333.633 140.915C334.038 139.21 334.239 137.452 334.239 135.656C334.239 132.595 333.647 129.642 332.473 126.865C331.099 126.608 329.69 126.477 328.274 126.477C325.646 126.477 323.05 126.931 320.606 127.811Z" fill="white"/>
<path d="M299.004 184.81C296.875 188.301 293.898 191.213 290.364 193.265C286.94 191.283 284.043 188.492 281.934 185.153C284.718 184.048 287.754 183.437 290.931 183.437C293.76 183.437 296.477 183.919 299.004 184.81Z" fill="white"/>
<path d="M308.749 164.62C308.749 164.835 308.753 165.047 308.756 165.258C308.805 167.127 309.061 168.94 309.504 170.68H309.508C310.238 173.554 311.477 176.227 313.129 178.591C314.78 176.227 316.019 173.554 316.753 170.677C317.193 168.947 317.449 167.141 317.501 165.283C317.504 165.064 317.508 164.842 317.508 164.62C317.508 164.419 317.504 164.218 317.501 164.017C317.456 162.159 317.203 160.353 316.767 158.623C316.037 155.725 314.79 153.035 313.129 150.653C311.467 153.035 310.221 155.725 309.49 158.623C309.054 160.353 308.801 162.159 308.756 164.014C308.753 164.215 308.749 164.419 308.749 164.62Z" fill="white"/>
<path d="M313.129 186.069C309.064 186.069 305.17 185.16 301.552 183.365C301.532 183.354 301.511 183.344 301.49 183.337C300.867 183.025 300.254 182.689 299.669 182.339C299.624 182.314 299.583 182.287 299.541 182.259C298.077 181.281 296.83 180.061 295.827 178.629C295.795 178.588 295.768 178.546 295.74 178.504C295.349 177.884 294.971 177.222 294.622 176.542C294.615 176.528 294.608 176.518 294.605 176.504C294.58 176.463 294.56 176.417 294.539 176.376C292.697 172.708 291.762 168.756 291.762 164.624C291.762 160.318 292.829 156.054 294.847 152.293L294.985 152.036C295.041 151.932 295.1 151.828 295.162 151.724C295.221 151.624 295.28 151.52 295.342 151.419C295.342 151.416 295.359 151.388 295.363 151.388C295.425 151.288 295.487 151.191 295.55 151.093C295.567 151.062 295.588 151.035 295.605 151.007L295.626 150.976C295.626 150.972 295.629 150.972 295.629 150.969C295.681 150.889 295.733 150.813 295.785 150.736C295.795 150.719 295.813 150.695 295.833 150.667C295.851 150.639 295.872 150.615 295.889 150.591L295.982 150.463C296.007 150.424 296.034 150.39 296.065 150.348C296.09 150.317 296.114 150.282 296.138 150.251C296.155 150.227 296.176 150.199 296.2 150.168C296.218 150.147 296.235 150.123 296.252 150.102C296.297 150.043 296.342 149.984 296.391 149.929C296.405 149.908 296.422 149.887 296.439 149.866C296.45 149.852 296.463 149.835 296.474 149.821C296.484 149.807 296.498 149.793 296.509 149.78C296.519 149.766 296.529 149.755 296.54 149.741C296.547 149.735 296.553 149.724 296.56 149.717C296.567 149.707 296.578 149.696 296.585 149.689C296.599 149.676 296.609 149.658 296.623 149.644C296.65 149.61 296.678 149.579 296.706 149.547C296.716 149.533 296.73 149.52 296.74 149.509C296.782 149.461 296.824 149.412 296.869 149.36C296.914 149.308 296.959 149.26 297.007 149.208C297.094 149.114 297.18 149.02 297.267 148.93C297.336 148.857 297.429 148.764 297.519 148.677C297.599 148.601 297.679 148.521 297.762 148.448C297.893 148.324 298.028 148.202 298.167 148.088C298.215 148.043 298.267 148.001 298.316 147.96C298.319 147.956 298.326 147.953 298.329 147.949C298.35 147.928 298.374 147.911 298.399 147.89C298.406 147.883 298.437 147.859 298.444 147.852L298.482 147.821C298.523 147.786 298.561 147.755 298.603 147.724C298.627 147.703 298.651 147.686 298.676 147.668C298.696 147.651 298.721 147.634 298.741 147.616C298.745 147.613 298.748 147.609 298.752 147.609C298.804 147.568 298.859 147.526 298.914 147.485C298.925 147.478 298.932 147.471 298.942 147.464C298.963 147.45 298.98 147.436 299.001 147.422C299.043 147.391 299.084 147.363 299.126 147.332C299.15 147.315 299.174 147.297 299.198 147.28C299.24 147.249 299.281 147.218 299.326 147.19C299.344 147.18 299.358 147.169 299.375 147.159C299.461 147.096 299.551 147.037 299.638 146.982C299.666 146.965 299.69 146.951 299.718 146.933C300.282 146.594 300.86 146.275 301.435 145.991C301.455 145.98 301.476 145.97 301.5 145.959C305.125 144.15 309.033 143.235 313.122 143.235C317.162 143.235 321.035 144.132 324.632 145.907C324.646 145.914 324.66 145.921 324.674 145.925C325.38 146.275 326.031 146.632 326.64 147.003C326.678 147.024 326.713 147.044 326.751 147.069C326.803 147.1 326.855 147.135 326.907 147.173C328.419 148.213 329.697 149.516 330.701 151.059C330.718 151.083 330.732 151.107 330.746 151.132C331.057 151.648 331.352 152.179 331.625 152.716C331.629 152.719 331.642 152.754 331.646 152.757C331.656 152.775 331.663 152.796 331.674 152.813C333.539 156.495 334.485 160.471 334.485 164.624C334.485 168.787 333.539 172.764 331.674 176.445C331.67 176.456 331.663 176.463 331.66 176.473C331.642 176.504 331.629 176.539 331.611 176.57C331.286 177.204 330.929 177.835 330.548 178.445C330.524 178.487 330.497 178.525 330.469 178.563C329.472 180.016 328.215 181.253 326.737 182.241C326.73 182.248 326.72 182.252 326.713 182.259C326.678 182.28 326.647 182.304 326.609 182.321C325.979 182.699 325.352 183.042 324.743 183.344C324.736 183.347 324.726 183.351 324.719 183.354C324.691 183.368 324.667 183.382 324.639 183.392C321.042 185.167 317.169 186.069 313.129 186.069ZM303.082 180.255C303.086 180.255 303.089 180.259 303.089 180.259C306.226 181.815 309.604 182.602 313.129 182.602C316.649 182.602 320.021 181.815 323.151 180.265C323.154 180.265 323.154 180.262 323.157 180.262C323.185 180.248 323.213 180.234 323.241 180.224C323.756 179.967 324.286 179.676 324.823 179.354C324.83 179.35 324.836 179.347 324.843 179.34C325.955 178.591 326.896 177.659 327.644 176.567C327.647 176.56 327.651 176.556 327.654 176.549C327.976 176.029 328.277 175.492 328.551 174.955C328.554 174.948 328.558 174.941 328.561 174.934C328.579 174.892 328.599 174.854 328.624 174.812C330.22 171.637 331.03 168.208 331.03 164.62C331.03 160.998 330.202 157.538 328.572 154.331C328.558 154.304 328.544 154.279 328.534 154.252C328.319 153.829 328.07 153.381 327.81 152.952C327.045 151.78 326.069 150.785 324.913 149.998C324.909 149.998 324.909 149.995 324.906 149.995C324.895 149.988 324.885 149.984 324.878 149.977C324.362 149.662 323.801 149.353 323.213 149.062C323.192 149.052 323.171 149.045 323.154 149.034C320.025 147.485 316.653 146.698 313.132 146.698C309.566 146.698 306.16 147.502 303.003 149.086C302.979 149.097 302.954 149.111 302.93 149.121C302.452 149.36 301.968 149.627 301.497 149.915C301.497 149.915 301.493 149.915 301.493 149.918C301.487 149.922 301.483 149.925 301.476 149.929C301.438 149.953 301.403 149.977 301.365 150.005C301.341 150.022 301.313 150.043 301.286 150.06C301.275 150.067 301.262 150.074 301.251 150.085C301.23 150.099 301.21 150.116 301.189 150.13C301.154 150.157 301.12 150.182 301.085 150.203C301.068 150.216 301.05 150.227 301.037 150.241C301.012 150.261 300.988 150.279 300.96 150.296C300.94 150.31 300.915 150.327 300.895 150.345C300.884 150.355 300.87 150.362 300.86 150.372C300.843 150.386 300.825 150.4 300.805 150.414C300.801 150.417 300.801 150.417 300.808 150.411C300.777 150.438 300.742 150.466 300.708 150.49L300.614 150.567C300.611 150.57 300.604 150.573 300.597 150.58C300.576 150.601 300.552 150.619 300.528 150.639L300.465 150.691C300.448 150.705 300.427 150.726 300.41 150.74C300.313 150.82 300.216 150.91 300.126 150.996C300.116 151.007 300.109 151.014 300.098 151.024C300.053 151.066 300.005 151.111 299.963 151.152C299.953 151.163 299.943 151.173 299.932 151.184C299.87 151.243 299.811 151.305 299.749 151.367C299.662 151.454 299.603 151.52 299.544 151.582C299.541 151.586 299.534 151.593 299.531 151.596C299.022 152.217 299.022 152.217 298.489 152.934C298.482 152.948 298.471 152.959 298.464 152.972C298.416 153.045 298.368 153.118 298.323 153.191C298.264 153.291 298.212 153.375 298.167 153.458C298.16 153.468 298.153 153.482 298.146 153.492C298.108 153.558 298.073 153.621 298.035 153.687L297.897 153.943C296.152 157.195 295.228 160.894 295.228 164.627C295.228 168.222 296.045 171.665 297.651 174.854C297.654 174.861 297.658 174.868 297.661 174.875C297.682 174.913 297.703 174.951 297.72 174.993C298.007 175.551 298.312 176.088 298.631 176.598C298.631 176.601 298.634 176.601 298.634 176.605C299.385 177.693 300.33 178.622 301.438 179.364C301.937 179.666 302.463 179.957 302.999 180.224C303.027 180.227 303.055 180.241 303.082 180.255ZM294.646 176.57C294.65 176.573 294.65 176.573 294.646 176.57C294.65 176.573 294.65 176.573 294.646 176.57ZM328.554 174.955C328.551 174.961 328.548 174.968 328.544 174.975L328.554 174.955ZM298.291 153.17C298.291 153.17 298.288 153.173 298.291 153.17C298.288 153.173 298.291 153.17 298.291 153.17ZM298.295 153.167C298.291 153.167 298.291 153.17 298.295 153.167C298.291 153.17 298.291 153.167 298.295 153.167ZM298.295 153.163C298.295 153.167 298.295 153.167 298.295 153.163C298.295 153.167 298.295 153.167 298.295 153.163ZM297.807 150.924H297.81H297.807ZM301.338 150.005C301.338 150.008 301.338 150.008 301.338 150.005C301.338 150.008 301.338 150.008 301.338 150.005ZM298.271 148.005C298.271 148.008 298.267 148.008 298.271 148.005C298.267 148.008 298.271 148.008 298.271 148.005ZM298.274 148.001C298.274 148.001 298.274 148.005 298.274 148.001C298.274 148.005 298.274 148.001 298.274 148.001ZM298.281 147.994C298.278 147.998 298.274 147.998 298.274 148.001C298.277 147.998 298.281 147.998 298.281 147.994Z" fill="white"/>
<path d="M273.235 164.471C273.235 164.686 273.231 164.898 273.228 165.109C273.179 166.978 272.923 168.791 272.48 170.531H272.477C271.746 173.405 270.507 176.078 268.856 178.442C267.204 176.078 265.965 173.405 265.231 170.528C264.791 168.798 264.535 166.992 264.483 165.133C264.48 164.915 264.476 164.693 264.476 164.471C264.476 164.27 264.48 164.069 264.483 163.868C264.528 162.01 264.781 160.204 265.217 158.474C265.948 155.576 267.194 152.886 268.856 150.504C270.517 152.886 271.764 155.576 272.494 158.474C272.93 160.204 273.183 162.01 273.228 163.865C273.231 164.066 273.235 164.27 273.235 164.471Z" fill="white"/>
<path d="M268.856 185.92C264.798 185.92 260.911 185.011 257.297 183.223C257.276 183.216 257.259 183.205 257.238 183.195C256.625 182.89 255.988 182.543 255.351 182.162C255.33 182.148 255.31 182.137 255.289 182.124C255.271 182.113 255.258 182.103 255.24 182.092C253.762 181.101 252.505 179.863 251.505 178.411C251.477 178.373 251.453 178.335 251.429 178.296C251.048 177.686 250.691 177.055 250.366 176.421C250.349 176.386 250.331 176.355 250.314 176.32C250.311 176.313 250.304 176.303 250.3 176.296C248.434 172.615 247.489 168.635 247.489 164.475C247.489 160.325 248.434 156.356 250.293 152.678C250.3 152.657 250.311 152.64 250.321 152.622L250.345 152.574C250.622 152.033 250.916 151.499 251.228 150.983C251.245 150.958 251.259 150.931 251.277 150.906C252.284 149.36 253.565 148.053 255.085 147.013C255.102 147.003 255.119 146.989 255.136 146.979C255.157 146.965 255.181 146.951 255.202 146.937C255.247 146.909 255.289 146.881 255.334 146.857C255.943 146.486 256.597 146.129 257.276 145.789C257.297 145.779 257.317 145.769 257.338 145.758C260.932 143.987 264.805 143.085 268.849 143.085C272.937 143.085 276.849 144.004 280.473 145.814C280.494 145.824 280.515 145.831 280.536 145.841C281.11 146.129 281.688 146.445 282.253 146.784C282.28 146.798 282.305 146.816 282.329 146.829C282.419 146.885 282.505 146.947 282.595 147.01C282.613 147.02 282.627 147.031 282.644 147.041C282.689 147.069 282.73 147.1 282.772 147.131C282.796 147.148 282.82 147.166 282.845 147.183C282.89 147.214 282.935 147.245 282.976 147.28C282.99 147.291 283.007 147.301 283.021 147.311C283.032 147.318 283.039 147.325 283.049 147.332C283.108 147.374 283.163 147.415 283.219 147.46C283.239 147.474 283.26 147.492 283.277 147.505C283.309 147.53 283.336 147.551 283.364 147.575C283.406 147.606 283.444 147.637 283.485 147.672L283.572 147.741C283.596 147.762 283.62 147.783 283.644 147.804L283.651 147.811C283.703 147.852 283.752 147.894 283.804 147.939C283.942 148.057 284.077 148.178 284.209 148.299C284.292 148.372 284.371 148.452 284.451 148.528C284.541 148.615 284.628 148.701 284.718 148.795C284.804 148.882 284.887 148.972 284.967 149.059C285.015 149.107 285.064 149.159 285.105 149.211C285.15 149.26 285.192 149.308 285.233 149.357C285.265 149.391 285.292 149.423 285.32 149.457C285.33 149.468 285.351 149.481 285.382 149.516C285.881 150.095 285.891 150.071 286.386 150.875C286.403 150.903 286.424 150.931 286.442 150.962C286.504 151.059 286.563 151.149 286.618 151.239C286.687 151.357 286.753 151.468 286.815 151.579C286.878 151.683 286.933 151.783 286.992 151.891L287.127 152.144C289.145 155.909 290.211 160.173 290.211 164.478C290.211 168.607 289.277 172.556 287.439 176.22C287.418 176.268 287.394 176.317 287.366 176.362C287.362 176.372 287.355 176.383 287.349 176.393C286.999 177.073 286.625 177.735 286.23 178.359C286.203 178.4 286.175 178.445 286.144 178.484C285.14 179.919 283.887 181.143 282.422 182.12C282.419 182.124 282.412 182.127 282.409 182.131C282.377 182.151 282.346 182.169 282.315 182.189C281.73 182.543 281.114 182.879 280.484 183.195C280.473 183.198 280.463 183.205 280.456 183.209C280.432 183.223 280.404 183.233 280.38 183.247C276.783 185.018 272.902 185.92 268.856 185.92ZM258.827 180.113C258.83 180.113 258.83 180.116 258.834 180.116C261.963 181.666 265.335 182.453 268.856 182.453C272.38 182.453 275.758 181.666 278.895 180.109C278.898 180.109 278.902 180.106 278.902 180.106C278.929 180.092 278.954 180.078 278.981 180.068C279.521 179.797 280.044 179.51 280.543 179.208C281.65 178.463 282.595 177.534 283.35 176.445C283.35 176.442 283.354 176.442 283.354 176.438C283.672 175.929 283.98 175.388 284.264 174.833C284.281 174.795 284.302 174.757 284.323 174.719C284.326 174.712 284.33 174.701 284.337 174.695C285.947 171.505 286.76 168.066 286.76 164.468C286.76 160.918 285.926 157.403 284.344 154.265C283.97 153.551 283.97 153.551 283.506 152.782C283.502 152.778 283.499 152.775 283.499 152.768C283.496 152.764 283.492 152.761 283.492 152.754C283.478 152.733 283.461 152.709 283.447 152.688C283.419 152.647 283.392 152.605 283.364 152.567C283.343 152.539 283.322 152.511 283.305 152.48L283.187 152.317C283.174 152.3 283.16 152.279 283.146 152.262C283.136 152.248 283.125 152.234 283.115 152.22L283.108 152.213C283.091 152.192 283.077 152.175 283.063 152.154C283.059 152.147 283.052 152.144 283.049 152.137C283.035 152.12 283.018 152.099 283.004 152.078C282.99 152.061 282.976 152.043 282.966 152.026L282.938 151.995C282.921 151.974 282.904 151.953 282.886 151.932C282.872 151.915 282.859 151.898 282.848 151.88C282.82 151.849 282.793 151.818 282.769 151.787C282.762 151.78 282.758 151.773 282.751 151.766C282.737 151.752 282.724 151.735 282.71 151.717L282.706 151.714C282.692 151.697 282.679 151.683 282.665 151.665L282.634 151.631C282.62 151.617 282.606 151.6 282.595 151.586C282.592 151.579 282.599 151.586 282.609 151.6C282.568 151.558 282.526 151.513 282.488 151.464C282.471 151.447 282.464 151.44 282.447 151.423C282.388 151.357 282.329 151.295 282.267 151.232C282.26 151.225 282.249 151.215 282.242 151.208C282.18 151.142 282.118 151.08 282.055 151.021C282.045 151.014 282.038 151.003 282.028 150.993C281.983 150.948 281.934 150.903 281.889 150.861C281.879 150.854 281.872 150.844 281.862 150.837C281.768 150.75 281.675 150.664 281.578 150.58C281.557 150.563 281.54 150.546 281.519 150.528L281.474 150.494C281.463 150.487 281.453 150.476 281.446 150.469C281.429 150.456 281.408 150.438 281.387 150.421L281.273 150.327C281.242 150.307 281.218 150.286 281.19 150.261C281.183 150.258 281.18 150.251 281.173 150.248C281.159 150.237 281.145 150.227 281.131 150.216C281.117 150.206 281.103 150.196 281.093 150.185C281.072 150.171 281.055 150.154 281.034 150.14C281.007 150.123 280.982 150.102 280.955 150.085C280.937 150.071 280.92 150.06 280.903 150.047C280.868 150.022 280.833 149.998 280.799 149.974C280.778 149.96 280.757 149.946 280.736 149.929C280.726 149.922 280.716 149.915 280.702 149.904C280.674 149.887 280.646 149.866 280.622 149.849C280.584 149.821 280.55 149.797 280.511 149.773C280.505 149.769 280.501 149.766 280.494 149.762C280.02 149.478 279.539 149.211 279.058 148.968C279.033 148.958 279.012 148.948 278.988 148.937C275.835 147.353 272.425 146.549 268.859 146.549C265.338 146.549 261.967 147.336 258.837 148.885C258.816 148.896 258.796 148.906 258.775 148.916C258.176 149.215 257.625 149.52 257.113 149.832C257.103 149.839 257.096 149.842 257.085 149.849C257.082 149.849 257.082 149.852 257.079 149.852C255.922 150.639 254.946 151.631 254.181 152.806C253.925 153.232 253.679 153.673 253.454 154.116C253.444 154.141 253.433 154.165 253.419 154.189C251.789 157.396 250.961 160.856 250.961 164.478C250.961 168.066 251.772 171.498 253.367 174.67C253.388 174.708 253.409 174.75 253.43 174.788C253.433 174.795 253.437 174.802 253.44 174.812C253.714 175.35 254.018 175.887 254.34 176.407C254.344 176.411 254.347 176.417 254.351 176.421C255.098 177.516 256.043 178.452 257.158 179.201C257.698 179.527 258.235 179.818 258.751 180.075C258.771 180.085 258.799 180.099 258.827 180.113ZM287.331 176.435C287.331 176.438 287.331 176.438 287.331 176.435C287.331 176.438 287.331 176.438 287.331 176.435ZM283.281 152.449C283.281 152.449 283.284 152.452 283.281 152.449C283.284 152.452 283.281 152.449 283.281 152.449ZM283.281 152.445C283.281 152.449 283.281 152.449 283.281 152.445C283.281 152.449 283.281 152.449 283.281 152.445ZM283.115 152.22C283.118 152.224 283.122 152.227 283.122 152.234C283.122 152.234 283.122 152.231 283.118 152.231C283.118 152.227 283.118 152.224 283.115 152.22ZM283.115 152.217C283.111 152.213 283.111 152.21 283.108 152.206C283.111 152.21 283.111 152.213 283.115 152.217ZM283.108 152.206C283.108 152.206 283.104 152.203 283.104 152.199C283.104 152.203 283.104 152.203 283.108 152.206ZM282.634 151.617C282.637 151.617 282.637 151.617 282.634 151.617C282.637 151.617 282.637 151.617 282.634 151.617ZM282.616 151.603C282.616 151.607 282.62 151.607 282.623 151.61C282.62 151.61 282.616 151.607 282.616 151.603ZM282.505 151.426C282.505 151.43 282.509 151.43 282.505 151.426C282.509 151.43 282.505 151.43 282.505 151.426ZM280.646 149.859C280.646 149.859 280.65 149.859 280.646 149.859C280.65 149.859 280.646 149.859 280.646 149.859ZM280.615 149.839C280.619 149.839 280.619 149.842 280.622 149.842C280.619 149.842 280.619 149.842 280.615 149.839ZM280.612 149.835C280.612 149.839 280.615 149.839 280.612 149.835C280.615 149.839 280.612 149.839 280.612 149.835ZM283.721 147.863C283.724 147.863 283.724 147.866 283.721 147.863C283.724 147.866 283.724 147.863 283.721 147.863ZM283.71 147.852C283.714 147.856 283.717 147.859 283.721 147.863C283.717 147.859 283.714 147.856 283.71 147.852ZM283.624 147.776L283.637 147.79C283.634 147.783 283.631 147.779 283.624 147.776ZM282.997 147.284C283.007 147.291 283.014 147.297 283.025 147.304C283.014 147.297 283.004 147.291 282.997 147.284C282.997 147.284 282.994 147.284 282.997 147.284Z" fill="white"/>
<path d="M450.829 155.621C450.829 176.958 444.044 196.708 432.512 212.824C419.901 196.285 412.413 175.62 412.413 153.208C412.413 131.871 419.198 112.121 430.73 96.0047C443.341 112.544 450.829 133.209 450.829 155.621Z" fill="white"/>
<path d="M473.14 65.5673C473.14 79.0631 462.218 90.0039 448.741 90.0039C435.268 90.0039 424.343 79.0631 424.343 65.5673C424.343 52.0751 435.268 41.1342 448.741 41.1342C462.218 41.1342 473.14 52.0751 473.14 65.5673Z" fill="white"/>
<path d="M412.036 43.5367C412.036 43.762 412.032 43.9839 412.025 44.2057C411.904 48.7609 410.398 53.1705 407.875 56.9561C407.439 57.6113 407.006 58.27 406.584 58.9287C406.58 58.9356 406.573 58.9391 406.57 58.946C406.57 58.9495 406.57 58.9495 406.566 58.9529C371.446 113.234 377.501 174.937 386.218 211.906C364.716 177.017 334.152 108.887 364.253 36.5444C364.253 36.5409 364.253 36.5409 364.256 36.5375C365 34.7348 365.793 32.9356 366.614 31.1295C366.617 31.1225 366.62 31.1191 366.624 31.1121C370.958 23.7732 379.014 18.906 388.191 19.1105C401.512 19.4052 412.036 30.1935 412.036 43.5367Z" fill="white"/>
<path d="M548.279 161.58C548.279 154.702 547.15 148.091 545.073 141.917C540.469 143.768 536.325 146.524 532.863 149.967C532.832 149.995 532.804 150.022 532.777 150.053C526.116 143.391 516.925 139.272 506.768 139.272C486.44 139.272 469.966 155.773 469.966 176.126C469.966 196.483 486.44 212.98 506.768 212.98C516.925 212.98 526.116 208.862 532.777 202.203C532.811 202.241 532.846 202.275 532.884 202.31C536.346 205.745 540.486 208.495 545.087 210.342C547.157 204.179 548.279 197.578 548.279 190.717C548.279 185.698 547.68 180.82 546.544 176.151C547.68 171.481 548.279 166.6 548.279 161.58ZM496.241 188.232C489.501 188.232 484.038 182.761 484.038 176.015C484.038 169.269 489.501 163.799 496.241 163.799C502.977 163.799 508.44 169.269 508.44 176.015C508.44 182.761 502.977 188.232 496.241 188.232Z" fill="white"/>
</g>
<defs>
<filter id="filter0_d_41_145" x="0" y="0" width="560.279" height="331.613" filterUnits="userSpaceOnUse" color-interpolation-filters="sRGB">
<feFlood flood-opacity="0" result="BackgroundImageFix"/>
<feColorMatrix in="SourceAlpha" type="matrix" values="0 0 0 0 0 0 0 0 0 0 0 0 0 0 0 0 0 0 127 0" result="hardAlpha"/>
<feOffset dy="4"/>
<feGaussianBlur stdDeviation="6"/>
<feComposite in2="hardAlpha" operator="out"/>
<feColorMatrix type="matrix" values="0 0 0 0 0.14902 0 0 0 0 0.984314 0 0 0 0 1 0 0 0 0.4 0"/>
<feBlend mode="normal" in2="BackgroundImageFix" result="effect1_dropShadow_41_145"/>
<feBlend mode="normal" in="SourceGraphic" in2="effect1_dropShadow_41_145" result="shape"/>
</filter>
</defs>
</svg>
