<svg width="51" height="53" viewBox="0 0 51 53" fill="none" xmlns="http://www.w3.org/2000/svg">
<path d="M25.5 0C11.4198 0 0 11.8676 0 26.5C0 41.1324 11.4198 53 25.5 53C39.5802 53 51 41.1324 51 26.5C51 11.8676 39.5866 0 25.5 0ZM12.58 27.39L12.6884 27.2111L19.3247 16.4256C19.347 16.3901 19.378 16.3615 19.4145 16.3428C19.451 16.324 19.4916 16.3158 19.5322 16.3189C19.5728 16.3221 19.6119 16.3365 19.6453 16.3607C19.6787 16.3849 19.7052 16.418 19.7221 16.4565C20.8271 19.038 21.7876 22.249 21.3371 24.2475C21.1501 25.069 20.6253 26.182 20.0324 27.2111C19.9563 27.3616 19.8733 27.5083 19.7838 27.6505C19.7623 27.6823 19.7336 27.708 19.7002 27.7253C19.6668 27.7427 19.6298 27.7511 19.5925 27.7499H12.7776C12.7369 27.7506 12.6969 27.7398 12.6616 27.7186C12.6264 27.6975 12.5973 27.6669 12.5775 27.63C12.5576 27.5931 12.5478 27.5512 12.549 27.509C12.5502 27.4667 12.5624 27.4256 12.5842 27.39H12.58ZM42.1472 31.1C42.1478 31.1471 42.135 31.1934 42.1104 31.233C42.0859 31.2727 42.0506 31.304 42.0091 31.323C41.4927 31.5505 39.7354 32.394 39.0044 33.4474C37.1386 36.146 35.7149 40.0062 32.5274 40.0062H19.2376C18.1156 40.0044 17.0048 39.7729 15.9689 39.3249C14.9329 38.8768 13.9921 38.221 13.2001 37.3949C12.4082 36.5689 11.7807 35.5887 11.3534 34.5105C10.9261 33.4322 10.7075 32.2771 10.71 31.111V30.952C10.71 30.8239 10.812 30.7179 10.9395 30.7179H18.3451C18.4939 30.7179 18.6001 30.857 18.5895 31.0094C18.5343 31.5085 18.6256 32.023 18.8551 32.489C19.2929 33.4165 20.2066 33.9951 21.1905 33.9951H24.8582V31.0205H21.2287C21.1862 31.02 21.1446 31.0075 21.1084 30.9842C21.0722 30.961 21.0428 30.928 21.0234 30.8887C21.0039 30.8494 20.9951 30.8053 20.998 30.7612C21.0009 30.7171 21.0153 30.6746 21.0396 30.6384L21.1735 30.4397C21.5135 29.9295 22.0044 29.1456 22.4931 28.249C22.8246 27.6439 23.1476 26.9991 23.4069 26.3498C23.4579 26.235 23.4982 26.1135 23.545 25.9965C23.6151 25.7889 23.6874 25.5946 23.7384 25.4025C23.7884 25.2395 23.8345 25.0753 23.8765 24.91C23.9976 24.3579 24.0486 23.7749 24.0486 23.172C24.0486 22.9335 24.0401 22.684 24.0189 22.4499C24.0083 22.1915 23.9764 21.931 23.9466 21.6726C23.9229 21.4414 23.8888 21.2115 23.8446 20.9836C23.7874 20.6365 23.718 20.2918 23.6364 19.9501L23.6066 19.8176C23.5429 19.5791 23.4876 19.3538 23.4154 19.1175C23.213 18.3919 22.9805 17.6757 22.7184 16.971C22.6271 16.706 22.5264 16.4445 22.4166 16.1871C22.2636 15.794 22.1064 15.4385 21.964 15.105C21.8932 14.9621 21.8265 14.8171 21.7642 14.67C21.6951 14.5113 21.6222 14.3544 21.5454 14.1996C21.4944 14.0825 21.4328 13.9699 21.3924 13.8639L20.944 13.0071C20.8824 12.89 20.9844 12.7465 21.1076 12.784L23.9126 13.5724H23.9339L24.3015 13.6828L24.7095 13.8021L24.8582 13.844V12.1149C24.8582 11.278 25.5 10.6 26.3011 10.6C26.4903 10.5995 26.6776 10.6387 26.8518 10.7154C27.026 10.792 27.1835 10.9045 27.3148 11.0461C27.5861 11.3305 27.7387 11.7144 27.7397 12.1149V14.6854L28.0394 14.7715C28.0606 14.7826 28.0861 14.7936 28.1052 14.8091C28.1775 14.8621 28.2838 14.946 28.4176 15.052C28.5239 15.1359 28.6365 15.2419 28.7683 15.3545C29.1879 15.7098 29.5947 16.0811 29.988 16.4675C30.4428 16.907 30.9527 17.4215 31.4415 17.9935C31.5796 18.1569 31.7114 18.3159 31.8495 18.4926C31.9812 18.667 32.13 18.8371 32.2533 19.0049C32.4211 19.2346 32.5933 19.4731 32.7526 19.7204C32.8228 19.8375 32.9099 19.9589 32.9757 20.076C33.1797 20.3895 33.354 20.712 33.5219 21.0366C33.5941 21.1845 33.6643 21.348 33.7259 21.507C33.915 21.942 34.0637 22.3815 34.1551 22.8275C34.1854 22.9222 34.206 23.0199 34.2167 23.119V23.1411C34.2465 23.267 34.2571 23.4061 34.2677 23.5475C34.3276 24.2002 34.2507 24.8586 34.0425 25.4775C33.9766 25.663 33.915 25.853 33.8342 26.0385C33.6749 26.4139 33.4921 26.7959 33.2732 27.147C33.201 27.2795 33.1139 27.4165 33.0331 27.549C32.9418 27.6881 32.844 27.8206 32.7633 27.9465C32.6464 28.1137 32.5238 28.2765 32.3956 28.4345C32.283 28.5935 32.1704 28.7525 32.0429 28.896C31.8708 29.1125 31.7029 29.3156 31.5222 29.51C31.4202 29.638 31.3098 29.7705 31.1908 29.8854C31.0803 30.0179 30.9613 30.1349 30.8593 30.2409C30.6808 30.4264 30.5405 30.5655 30.4173 30.687L30.1261 30.9564C30.0856 30.9987 30.0306 31.0225 29.9731 31.0227H27.7397V33.9951H30.549C31.1759 33.9951 31.773 33.7654 32.2575 33.337C32.4211 33.189 33.1394 32.542 33.9915 31.5659C34.0193 31.5327 34.0565 31.5095 34.0977 31.4997L41.854 29.1655C41.8881 29.1552 41.9239 29.1533 41.9588 29.1599C41.9937 29.1665 42.0266 29.1814 42.055 29.2034C42.0834 29.2255 42.1065 29.254 42.1225 29.2869C42.1385 29.3198 42.147 29.3561 42.1472 29.3929V31.1Z" fill="white"/>
</svg>
