<svg width="61" height="50" viewBox="0 0 61 50" fill="none" xmlns="http://www.w3.org/2000/svg">
<path d="M54.6888 12.7602C54.7258 13.2891 54.7258 13.8181 54.7258 14.3519C54.7258 30.6176 42.1712 49.3769 19.2144 49.3769V49.3671C12.4329 49.3769 5.79226 47.461 0.0833435 43.8485C1.06943 43.9655 2.06046 44.024 3.05396 44.0265C8.6739 44.0314 14.1332 42.1715 18.5545 38.7468C13.2139 38.6468 8.53056 35.2123 6.8945 30.1983C8.76535 30.5542 10.693 30.4811 12.5293 29.9863C6.70668 28.826 2.51767 23.7803 2.51767 17.9205C2.51767 17.8668 2.51767 17.8156 2.51767 17.7645C4.25258 18.7175 6.1951 19.2465 8.1821 19.305C2.69808 15.6901 1.00764 8.4945 4.31931 2.86866C10.656 10.5591 20.0052 15.2343 30.0416 15.7291C29.0357 11.4537 30.4098 6.97347 33.6523 3.96799C38.6791 -0.692584 46.5851 -0.453705 51.3104 4.50181C54.1055 3.95824 56.7845 2.94666 59.2361 1.51339C58.3044 4.36287 56.3545 6.78335 53.7496 8.32143C56.2235 8.0338 58.6405 7.38054 60.9167 6.38359C59.2411 8.86013 57.1305 11.0173 54.6888 12.7602Z" fill="white"/>
</svg>
