<svg width="61" height="50" viewBox="0 0 61 50" fill="none" xmlns="http://www.w3.org/2000/svg">
<path d="M54.6887 12.7602C54.7258 13.2892 54.7258 13.8181 54.7258 14.3519C54.7258 30.6176 42.1711 49.3769 19.2144 49.3769V49.3672C12.4329 49.3769 5.79223 47.461 0.083313 43.8486C1.0694 43.9656 2.06043 44.0241 3.05393 44.0265C8.67387 44.0314 14.1332 42.1716 18.5545 38.7468C13.2138 38.6469 8.53053 35.2124 6.89447 30.1984C8.76532 30.5542 10.693 30.4811 12.5292 29.9863C6.70665 28.826 2.51763 23.7803 2.51763 17.9205C2.51763 17.8669 2.51763 17.8157 2.51763 17.7645C4.25255 18.7176 6.19507 19.2465 8.18207 19.305C2.69805 15.6901 1.00761 8.49453 4.31928 2.86869C10.6559 10.5591 20.0052 15.2343 30.0415 15.7291C29.0357 11.4537 30.4098 6.9735 33.6522 3.96802C38.6791 -0.692554 46.585 -0.453675 51.3103 4.50184C54.1055 3.95827 56.7845 2.94669 59.2361 1.51342C58.3044 4.3629 56.3545 6.78338 53.7496 8.32146C56.2235 8.03383 58.6405 7.38057 60.9166 6.38362C59.241 8.86016 57.1305 11.0174 54.6887 12.7602Z" fill="#26FBFF"/>
</svg>
